<svg width="26" height="25" viewBox="0 0 26 25" fill="none" xmlns="http://www.w3.org/2000/svg">
<path d="M14.0835 6.25001C14.0835 6.82526 13.5985 7.29161 13.0003 7.29161C12.402 7.29161 11.917 6.82526 11.917 6.25001C11.917 5.67475 12.402 5.2084 13.0003 5.2084C13.5985 5.2084 14.0835 5.67475 14.0835 6.25001Z" fill="#E71F67"/>
<path d="M13.0003 19.7916C12.5518 19.7916 12.1878 19.4416 12.1878 19.0104V10.9375H11.1045C10.656 10.9375 10.292 10.5875 10.292 10.1562C10.292 9.725 10.656 9.375 11.1045 9.375H13.0003C13.4488 9.375 13.8128 9.725 13.8128 10.1562V19.0104C13.8128 19.4416 13.4488 19.7916 13.0003 19.7916Z" fill="#E71F67"/>
<path d="M13 25C5.83151 25 0 19.3928 0 12.5C0 5.60722 5.83151 0 13 0C20.1685 0 26 5.60722 26 12.5C26 19.3928 20.1685 25 13 25ZM13 1.5625C6.72752 1.5625 1.625 6.46877 1.625 12.5C1.625 18.5312 6.72752 23.4375 13 23.4375C19.2725 23.4375 24.375 18.5312 24.375 12.5C24.375 6.46877 19.2725 1.5625 13 1.5625Z" fill="#E71F67"/>
<path d="M15.4375 19.7916H10.5625C10.114 19.7916 9.75 19.4416 9.75 19.0103C9.75 18.5791 10.114 18.2291 10.5625 18.2291H15.4375C15.886 18.2291 16.25 18.5791 16.25 19.0103C16.25 19.4416 15.886 19.7916 15.4375 19.7916Z" fill="#E71F67"/>
</svg>
