<svg width="334" height="467" viewBox="0 0 334 467" fill="none" xmlns="http://www.w3.org/2000/svg">
<rect width="334" height="467" rx="25" fill="#C4C4C4" fill-opacity="0.25"/>
<rect x="67.5" y="79.5" width="192" height="192" rx="96" fill="white" stroke="#EF1F67"/>
<path d="M84.2774 321V315.92L80.3374 307.88H82.1174L83.8174 311.58C84.0308 312.06 84.2374 312.533 84.4374 313C84.6374 313.467 84.8508 313.947 85.0774 314.44H85.1574C85.3841 313.947 85.6108 313.467 85.8374 313C86.0641 312.533 86.2774 312.06 86.4774 311.58L88.1574 307.88H89.8974L85.9574 315.92V321H84.2774ZM94.4688 321.24C93.8688 321.24 93.2955 321.127 92.7488 320.9C92.2155 320.673 91.7422 320.347 91.3288 319.92C90.9155 319.48 90.5822 318.947 90.3288 318.32C90.0888 317.68 89.9688 316.96 89.9688 316.16C89.9688 315.347 90.0888 314.627 90.3288 314C90.5822 313.36 90.9155 312.82 91.3288 312.38C91.7422 311.94 92.2155 311.607 92.7488 311.38C93.2955 311.153 93.8688 311.04 94.4688 311.04C95.0688 311.04 95.6355 311.153 96.1688 311.38C96.7155 311.607 97.1955 311.94 97.6088 312.38C98.0222 312.82 98.3488 313.36 98.5888 314C98.8422 314.627 98.9688 315.347 98.9688 316.16C98.9688 316.96 98.8422 317.68 98.5888 318.32C98.3488 318.947 98.0222 319.48 97.6088 319.92C97.1955 320.347 96.7155 320.673 96.1688 320.9C95.6355 321.127 95.0688 321.24 94.4688 321.24ZM94.4688 319.88C94.8822 319.88 95.2622 319.793 95.6088 319.62C95.9555 319.433 96.2488 319.18 96.4888 318.86C96.7422 318.527 96.9355 318.133 97.0688 317.68C97.2022 317.227 97.2688 316.72 97.2688 316.16C97.2688 315.6 97.2022 315.093 97.0688 314.64C96.9355 314.173 96.7422 313.773 96.4888 313.44C96.2488 313.107 95.9555 312.853 95.6088 312.68C95.2622 312.493 94.8822 312.4 94.4688 312.4C94.0555 312.4 93.6755 312.493 93.3288 312.68C92.9822 312.853 92.6822 313.107 92.4288 313.44C92.1888 313.773 92.0022 314.173 91.8688 314.64C91.7355 315.093 91.6688 315.6 91.6688 316.16C91.6688 316.72 91.7355 317.227 91.8688 317.68C92.0022 318.133 92.1888 318.527 92.4288 318.86C92.6822 319.18 92.9822 319.433 93.3288 319.62C93.6755 319.793 94.0555 319.88 94.4688 319.88ZM104.369 321.24C103.329 321.24 102.569 320.92 102.089 320.28C101.622 319.64 101.389 318.693 101.389 317.44V311.28H103.049V317.22C103.049 318.14 103.189 318.807 103.469 319.22C103.762 319.62 104.229 319.82 104.869 319.82C105.375 319.82 105.822 319.693 106.209 319.44C106.595 319.173 107.022 318.753 107.489 318.18V311.28H109.129V321H107.769L107.629 319.48H107.569C107.115 320.013 106.635 320.44 106.129 320.76C105.635 321.08 105.049 321.24 104.369 321.24ZM112.408 321V311.28H113.768L113.908 313.04H113.968C114.301 312.427 114.701 311.94 115.168 311.58C115.648 311.22 116.168 311.04 116.728 311.04C117.114 311.04 117.461 311.107 117.768 311.24L117.448 312.68C117.288 312.627 117.141 312.587 117.008 312.56C116.874 312.533 116.708 312.52 116.508 312.52C116.094 312.52 115.661 312.687 115.208 313.02C114.768 313.353 114.381 313.933 114.048 314.76V321H112.408ZM127.185 321.24C126.545 321.24 125.945 321.127 125.385 320.9C124.825 320.673 124.338 320.347 123.925 319.92C123.525 319.48 123.205 318.947 122.965 318.32C122.738 317.68 122.625 316.96 122.625 316.16C122.625 315.347 122.752 314.627 123.005 314C123.258 313.36 123.598 312.82 124.025 312.38C124.452 311.94 124.945 311.607 125.505 311.38C126.078 311.153 126.678 311.04 127.305 311.04C127.945 311.04 128.492 311.153 128.945 311.38C129.398 311.607 129.798 311.873 130.145 312.18L129.305 313.26C129.025 313.007 128.725 312.8 128.405 312.64C128.098 312.48 127.752 312.4 127.365 312.4C126.925 312.4 126.518 312.493 126.145 312.68C125.772 312.853 125.452 313.107 125.185 313.44C124.918 313.773 124.705 314.173 124.545 314.64C124.398 315.093 124.325 315.6 124.325 316.16C124.325 316.72 124.398 317.227 124.545 317.68C124.692 318.133 124.892 318.527 125.145 318.86C125.412 319.18 125.732 319.433 126.105 319.62C126.478 319.793 126.885 319.88 127.325 319.88C127.778 319.88 128.192 319.787 128.565 319.6C128.952 319.4 129.298 319.167 129.605 318.9L130.325 320C129.885 320.387 129.398 320.693 128.865 320.92C128.332 321.133 127.772 321.24 127.185 321.24ZM134.206 321.24C133.58 321.24 133.133 321.053 132.866 320.68C132.6 320.307 132.466 319.76 132.466 319.04V306.76H134.106V319.16C134.106 319.427 134.153 319.613 134.246 319.72C134.34 319.827 134.446 319.88 134.566 319.88C134.62 319.88 134.666 319.88 134.706 319.88C134.76 319.88 134.833 319.867 134.926 319.84L135.146 321.08C135.04 321.133 134.913 321.173 134.766 321.2C134.62 321.227 134.433 321.24 134.206 321.24ZM137.564 321V311.28H139.204V321H137.564ZM138.404 309.28C138.084 309.28 137.81 309.18 137.584 308.98C137.37 308.78 137.264 308.527 137.264 308.22C137.264 307.9 137.37 307.647 137.584 307.46C137.81 307.26 138.084 307.16 138.404 307.16C138.724 307.16 138.99 307.26 139.204 307.46C139.43 307.647 139.544 307.9 139.544 308.22C139.544 308.527 139.43 308.78 139.204 308.98C138.99 309.18 138.724 309.28 138.404 309.28ZM146.426 321.24C145.772 321.24 145.159 321.127 144.586 320.9C144.026 320.66 143.532 320.327 143.106 319.9C142.692 319.46 142.366 318.927 142.126 318.3C141.886 317.673 141.766 316.96 141.766 316.16C141.766 315.36 141.886 314.647 142.126 314.02C142.379 313.38 142.706 312.84 143.106 312.4C143.519 311.96 143.986 311.627 144.506 311.4C145.026 311.16 145.566 311.04 146.126 311.04C146.739 311.04 147.286 311.147 147.766 311.36C148.259 311.573 148.666 311.88 148.986 312.28C149.319 312.68 149.572 313.16 149.746 313.72C149.919 314.28 150.006 314.907 150.006 315.6C150.006 315.773 149.999 315.947 149.986 316.12C149.986 316.28 149.972 316.42 149.946 316.54H143.386C143.452 317.58 143.772 318.407 144.346 319.02C144.932 319.62 145.692 319.92 146.626 319.92C147.092 319.92 147.519 319.853 147.906 319.72C148.306 319.573 148.686 319.387 149.046 319.16L149.626 320.24C149.199 320.507 148.726 320.74 148.206 320.94C147.686 321.14 147.092 321.24 146.426 321.24ZM143.366 315.36H148.566C148.566 314.373 148.352 313.627 147.926 313.12C147.512 312.6 146.926 312.34 146.166 312.34C145.819 312.34 145.486 312.407 145.166 312.54C144.859 312.673 144.579 312.873 144.326 313.14C144.072 313.393 143.859 313.707 143.686 314.08C143.526 314.453 143.419 314.88 143.366 315.36ZM152.408 321V311.28H153.768L153.908 312.68H153.968C154.434 312.213 154.921 311.827 155.428 311.52C155.948 311.2 156.548 311.04 157.228 311.04C158.254 311.04 159.001 311.36 159.468 312C159.948 312.64 160.188 313.587 160.188 314.84V321H158.548V315.06C158.548 314.14 158.401 313.48 158.108 313.08C157.814 312.667 157.348 312.46 156.708 312.46C156.201 312.46 155.754 312.587 155.368 312.84C154.981 313.093 154.541 313.467 154.048 313.96V321H152.408ZM166.405 321.24C165.885 321.24 165.445 321.16 165.085 321C164.738 320.84 164.452 320.62 164.225 320.34C164.012 320.06 163.858 319.72 163.765 319.32C163.672 318.92 163.625 318.48 163.625 318V312.62H162.185V311.38L163.705 311.28L163.905 308.56H165.285V311.28H167.905V312.62H165.285V318.02C165.285 318.62 165.392 319.087 165.605 319.42C165.832 319.74 166.225 319.9 166.785 319.9C166.958 319.9 167.145 319.873 167.345 319.82C167.545 319.767 167.725 319.707 167.885 319.64L168.205 320.88C167.938 320.973 167.645 321.053 167.325 321.12C167.018 321.2 166.712 321.24 166.405 321.24ZM174.107 321V306.76H175.747V310.64L175.687 312.64C176.153 312.2 176.64 311.827 177.147 311.52C177.653 311.2 178.247 311.04 178.927 311.04C179.953 311.04 180.7 311.36 181.167 312C181.647 312.64 181.887 313.587 181.887 314.84V321H180.247V315.06C180.247 314.14 180.1 313.48 179.807 313.08C179.513 312.667 179.047 312.46 178.407 312.46C177.9 312.46 177.453 312.587 177.067 312.84C176.68 313.093 176.24 313.467 175.747 313.96V321H174.107ZM187.226 321.24C186.412 321.24 185.732 321 185.186 320.52C184.652 320.04 184.386 319.36 184.386 318.48C184.386 317.413 184.859 316.6 185.806 316.04C186.752 315.467 188.266 315.067 190.346 314.84C190.346 314.533 190.312 314.233 190.246 313.94C190.192 313.647 190.092 313.387 189.946 313.16C189.799 312.933 189.592 312.753 189.326 312.62C189.072 312.473 188.746 312.4 188.346 312.4C187.786 312.4 187.259 312.507 186.766 312.72C186.272 312.933 185.832 313.173 185.446 313.44L184.806 312.3C185.259 312.007 185.812 311.727 186.466 311.46C187.119 311.18 187.839 311.04 188.626 311.04C189.812 311.04 190.672 311.407 191.206 312.14C191.739 312.86 192.006 313.827 192.006 315.04V321H190.646L190.506 319.84H190.446C189.979 320.227 189.479 320.56 188.946 320.84C188.412 321.107 187.839 321.24 187.226 321.24ZM187.706 319.92C188.172 319.92 188.612 319.813 189.026 319.6C189.439 319.373 189.879 319.047 190.346 318.62V315.92C189.532 316.027 188.846 316.153 188.286 316.3C187.739 316.447 187.292 316.62 186.946 316.82C186.612 317.02 186.366 317.253 186.206 317.52C186.059 317.773 185.986 318.053 185.986 318.36C185.986 318.92 186.152 319.32 186.486 319.56C186.819 319.8 187.226 319.92 187.706 319.92ZM197.604 321.24C196.91 321.24 196.25 321.113 195.624 320.86C194.997 320.607 194.45 320.287 193.984 319.9L194.804 318.8C195.23 319.147 195.664 319.427 196.104 319.64C196.557 319.853 197.077 319.96 197.664 319.96C198.304 319.96 198.784 319.813 199.104 319.52C199.424 319.227 199.584 318.867 199.584 318.44C199.584 318.187 199.517 317.967 199.384 317.78C199.25 317.593 199.077 317.433 198.864 317.3C198.664 317.153 198.43 317.027 198.164 316.92C197.897 316.813 197.63 316.707 197.364 316.6C197.017 316.48 196.67 316.347 196.324 316.2C195.977 316.04 195.664 315.853 195.384 315.64C195.117 315.413 194.897 315.153 194.724 314.86C194.55 314.567 194.464 314.213 194.464 313.8C194.464 313.413 194.537 313.053 194.684 312.72C194.844 312.373 195.064 312.08 195.344 311.84C195.637 311.587 195.99 311.393 196.404 311.26C196.817 311.113 197.284 311.04 197.804 311.04C198.417 311.04 198.977 311.147 199.484 311.36C200.004 311.573 200.45 311.833 200.824 312.14L200.044 313.18C199.71 312.927 199.364 312.72 199.004 312.56C198.644 312.4 198.25 312.32 197.824 312.32C197.21 312.32 196.757 312.46 196.464 312.74C196.184 313.02 196.044 313.347 196.044 313.72C196.044 313.947 196.104 314.147 196.224 314.32C196.344 314.48 196.504 314.627 196.704 314.76C196.904 314.88 197.13 314.993 197.384 315.1C197.65 315.193 197.924 315.293 198.204 315.4C198.55 315.533 198.897 315.673 199.244 315.82C199.604 315.967 199.924 316.153 200.204 316.38C200.484 316.593 200.71 316.86 200.884 317.18C201.07 317.5 201.164 317.887 201.164 318.34C201.164 318.74 201.084 319.113 200.924 319.46C200.777 319.807 200.55 320.113 200.244 320.38C199.95 320.647 199.577 320.853 199.124 321C198.684 321.16 198.177 321.24 197.604 321.24ZM211.747 321.24C211.293 321.24 210.82 321.133 210.327 320.92C209.847 320.693 209.393 320.387 208.967 320H208.907L208.767 321H207.447V306.76H209.087V310.64L209.047 312.4C209.487 312.013 209.967 311.693 210.487 311.44C211.007 311.173 211.54 311.04 212.087 311.04C212.713 311.04 213.267 311.16 213.747 311.4C214.227 311.627 214.627 311.96 214.947 312.4C215.28 312.827 215.527 313.347 215.687 313.96C215.86 314.56 215.947 315.233 215.947 315.98C215.947 316.807 215.833 317.547 215.607 318.2C215.38 318.853 215.073 319.407 214.687 319.86C214.3 320.313 213.853 320.66 213.347 320.9C212.84 321.127 212.307 321.24 211.747 321.24ZM211.467 319.86C211.867 319.86 212.233 319.773 212.567 319.6C212.913 319.413 213.207 319.16 213.447 318.84C213.7 318.507 213.893 318.1 214.027 317.62C214.173 317.14 214.247 316.6 214.247 316C214.247 315.467 214.2 314.98 214.107 314.54C214.013 314.1 213.86 313.727 213.647 313.42C213.447 313.1 213.18 312.853 212.847 312.68C212.527 312.507 212.14 312.42 211.687 312.42C210.9 312.42 210.033 312.86 209.087 313.74V318.84C209.513 319.213 209.933 319.48 210.347 319.64C210.773 319.787 211.147 319.86 211.467 319.86ZM222.441 321.24C221.788 321.24 221.175 321.127 220.601 320.9C220.041 320.66 219.548 320.327 219.121 319.9C218.708 319.46 218.381 318.927 218.141 318.3C217.901 317.673 217.781 316.96 217.781 316.16C217.781 315.36 217.901 314.647 218.141 314.02C218.395 313.38 218.721 312.84 219.121 312.4C219.535 311.96 220.001 311.627 220.521 311.4C221.041 311.16 221.581 311.04 222.141 311.04C222.755 311.04 223.301 311.147 223.781 311.36C224.275 311.573 224.681 311.88 225.001 312.28C225.335 312.68 225.588 313.16 225.761 313.72C225.935 314.28 226.021 314.907 226.021 315.6C226.021 315.773 226.015 315.947 226.001 316.12C226.001 316.28 225.988 316.42 225.961 316.54H219.401C219.468 317.58 219.788 318.407 220.361 319.02C220.948 319.62 221.708 319.92 222.641 319.92C223.108 319.92 223.535 319.853 223.921 319.72C224.321 319.573 224.701 319.387 225.061 319.16L225.641 320.24C225.215 320.507 224.741 320.74 224.221 320.94C223.701 321.14 223.108 321.24 222.441 321.24ZM219.381 315.36H224.581C224.581 314.373 224.368 313.627 223.941 313.12C223.528 312.6 222.941 312.34 222.181 312.34C221.835 312.34 221.501 312.407 221.181 312.54C220.875 312.673 220.595 312.873 220.341 313.14C220.088 313.393 219.875 313.707 219.701 314.08C219.541 314.453 219.435 314.88 219.381 315.36ZM232.363 321.24C231.71 321.24 231.097 321.127 230.523 320.9C229.963 320.66 229.47 320.327 229.043 319.9C228.63 319.46 228.303 318.927 228.063 318.3C227.823 317.673 227.703 316.96 227.703 316.16C227.703 315.36 227.823 314.647 228.063 314.02C228.317 313.38 228.643 312.84 229.043 312.4C229.457 311.96 229.923 311.627 230.443 311.4C230.963 311.16 231.503 311.04 232.063 311.04C232.677 311.04 233.223 311.147 233.703 311.36C234.197 311.573 234.603 311.88 234.923 312.28C235.257 312.68 235.51 313.16 235.683 313.72C235.857 314.28 235.943 314.907 235.943 315.6C235.943 315.773 235.937 315.947 235.923 316.12C235.923 316.28 235.91 316.42 235.883 316.54H229.323C229.39 317.58 229.71 318.407 230.283 319.02C230.87 319.62 231.63 319.92 232.563 319.92C233.03 319.92 233.457 319.853 233.843 319.72C234.243 319.573 234.623 319.387 234.983 319.16L235.563 320.24C235.137 320.507 234.663 320.74 234.143 320.94C233.623 321.14 233.03 321.24 232.363 321.24ZM229.303 315.36H234.503C234.503 314.373 234.29 313.627 233.863 313.12C233.45 312.6 232.863 312.34 232.103 312.34C231.757 312.34 231.423 312.407 231.103 312.54C230.797 312.673 230.517 312.873 230.263 313.14C230.01 313.393 229.797 313.707 229.623 314.08C229.463 314.453 229.357 314.88 229.303 315.36ZM238.345 321V311.28H239.705L239.845 312.68H239.905C240.372 312.213 240.858 311.827 241.365 311.52C241.885 311.2 242.485 311.04 243.165 311.04C244.192 311.04 244.938 311.36 245.405 312C245.885 312.64 246.125 313.587 246.125 314.84V321H244.485V315.06C244.485 314.14 244.338 313.48 244.045 313.08C243.752 312.667 243.285 312.46 242.645 312.46C242.138 312.46 241.692 312.587 241.305 312.84C240.918 313.093 240.478 313.467 239.985 313.96V321H238.345ZM73.3451 346V336.28H74.7051L74.8451 338.04H74.9051C75.2384 337.427 75.6384 336.94 76.1051 336.58C76.5851 336.22 77.1051 336.04 77.6651 336.04C78.0517 336.04 78.3984 336.107 78.7051 336.24L78.3851 337.68C78.2251 337.627 78.0784 337.587 77.9451 337.56C77.8117 337.533 77.6451 337.52 77.4451 337.52C77.0317 337.52 76.5984 337.687 76.1451 338.02C75.7051 338.353 75.3184 338.933 74.9851 339.76V346H73.3451ZM84.0234 346.24C83.37 346.24 82.7567 346.127 82.1834 345.9C81.6234 345.66 81.13 345.327 80.7034 344.9C80.29 344.46 79.9634 343.927 79.7234 343.3C79.4834 342.673 79.3634 341.96 79.3634 341.16C79.3634 340.36 79.4834 339.647 79.7234 339.02C79.9767 338.38 80.3034 337.84 80.7034 337.4C81.1167 336.96 81.5834 336.627 82.1034 336.4C82.6234 336.16 83.1634 336.04 83.7234 336.04C84.3367 336.04 84.8834 336.147 85.3634 336.36C85.8567 336.573 86.2634 336.88 86.5834 337.28C86.9167 337.68 87.17 338.16 87.3434 338.72C87.5167 339.28 87.6034 339.907 87.6034 340.6C87.6034 340.773 87.5967 340.947 87.5834 341.12C87.5834 341.28 87.57 341.42 87.5434 341.54H80.9834C81.05 342.58 81.37 343.407 81.9434 344.02C82.53 344.62 83.29 344.92 84.2234 344.92C84.69 344.92 85.1167 344.853 85.5034 344.72C85.9034 344.573 86.2834 344.387 86.6434 344.16L87.2234 345.24C86.7967 345.507 86.3234 345.74 85.8034 345.94C85.2834 346.14 84.69 346.24 84.0234 346.24ZM80.9634 340.36H86.1634C86.1634 339.373 85.95 338.627 85.5234 338.12C85.11 337.6 84.5234 337.34 83.7634 337.34C83.4167 337.34 83.0834 337.407 82.7634 337.54C82.4567 337.673 82.1767 337.873 81.9234 338.14C81.67 338.393 81.4567 338.707 81.2834 339.08C81.1234 339.453 81.0167 339.88 80.9634 340.36ZM93.0899 350.48C92.4899 350.48 91.9433 350.42 91.4499 350.3C90.9566 350.193 90.5299 350.027 90.1699 349.8C89.8233 349.573 89.5499 349.3 89.3499 348.98C89.1633 348.66 89.0699 348.287 89.0699 347.86C89.0699 347.447 89.1966 347.053 89.4499 346.68C89.7033 346.307 90.0499 345.967 90.4899 345.66V345.58C90.2499 345.433 90.0433 345.233 89.8699 344.98C89.7099 344.713 89.6299 344.387 89.6299 344C89.6299 343.587 89.7433 343.227 89.9699 342.92C90.1966 342.613 90.4366 342.373 90.6899 342.2V342.12C90.3699 341.853 90.0766 341.5 89.8099 341.06C89.5566 340.607 89.4299 340.087 89.4299 339.5C89.4299 338.967 89.5233 338.487 89.7099 338.06C89.9099 337.633 90.1766 337.273 90.5099 336.98C90.8433 336.673 91.2299 336.44 91.6699 336.28C92.1233 336.12 92.5966 336.04 93.0899 336.04C93.3566 336.04 93.6033 336.067 93.8299 336.12C94.0699 336.16 94.2833 336.213 94.4699 336.28H97.8499V337.54H95.8499C96.0766 337.767 96.2633 338.053 96.4099 338.4C96.5699 338.747 96.6499 339.127 96.6499 339.54C96.6499 340.06 96.5566 340.533 96.3699 340.96C96.1833 341.373 95.9299 341.727 95.6099 342.02C95.2899 342.3 94.9099 342.52 94.4699 342.68C94.0433 342.84 93.5833 342.92 93.0899 342.92C92.8499 342.92 92.6033 342.893 92.3499 342.84C92.0966 342.773 91.8566 342.687 91.6299 342.58C91.4566 342.727 91.3099 342.893 91.1899 343.08C91.0699 343.253 91.0099 343.473 91.0099 343.74C91.0099 344.047 91.1299 344.3 91.3699 344.5C91.6099 344.7 92.0633 344.8 92.7299 344.8H94.6099C95.7433 344.8 96.5899 344.987 97.1499 345.36C97.7233 345.72 98.0099 346.307 98.0099 347.12C98.0099 347.573 97.8966 348 97.6699 348.4C97.4433 348.813 97.1166 349.173 96.6899 349.48C96.2633 349.787 95.7433 350.027 95.1299 350.2C94.5299 350.387 93.8499 350.48 93.0899 350.48ZM93.0899 341.82C93.3699 341.82 93.6299 341.767 93.8699 341.66C94.1233 341.553 94.3433 341.4 94.5299 341.2C94.7299 341 94.8833 340.76 94.9899 340.48C95.0966 340.187 95.1499 339.86 95.1499 339.5C95.1499 338.78 94.9499 338.227 94.5499 337.84C94.1499 337.44 93.6633 337.24 93.0899 337.24C92.5166 337.24 92.0299 337.44 91.6299 337.84C91.2299 338.227 91.0299 338.78 91.0299 339.5C91.0299 339.86 91.0833 340.187 91.1899 340.48C91.2966 340.76 91.4433 341 91.6299 341.2C91.8299 341.4 92.0499 341.553 92.2899 341.66C92.5433 341.767 92.8099 341.82 93.0899 341.82ZM93.3299 349.34C93.7966 349.34 94.2166 349.28 94.5899 349.16C94.9766 349.053 95.3033 348.907 95.5699 348.72C95.8366 348.547 96.0433 348.34 96.1899 348.1C96.3366 347.86 96.4099 347.613 96.4099 347.36C96.4099 346.907 96.2433 346.593 95.9099 346.42C95.5766 346.247 95.0899 346.16 94.4499 346.16H92.7699C92.5833 346.16 92.3766 346.147 92.1499 346.12C91.9366 346.107 91.7233 346.067 91.5099 346C91.1633 346.253 90.9099 346.52 90.7499 346.8C90.5899 347.08 90.5099 347.36 90.5099 347.64C90.5099 348.16 90.7566 348.573 91.2499 348.88C91.7566 349.187 92.4499 349.34 93.3299 349.34ZM99.888 346V336.28H101.528V346H99.888ZM100.728 334.28C100.408 334.28 100.135 334.18 99.908 333.98C99.6947 333.78 99.588 333.527 99.588 333.22C99.588 332.9 99.6947 332.647 99.908 332.46C100.135 332.26 100.408 332.16 100.728 332.16C101.048 332.16 101.315 332.26 101.528 332.46C101.755 332.647 101.868 332.9 101.868 333.22C101.868 333.527 101.755 333.78 101.528 333.98C101.315 334.18 101.048 334.28 100.728 334.28ZM107.35 346.24C106.657 346.24 105.997 346.113 105.37 345.86C104.743 345.607 104.197 345.287 103.73 344.9L104.55 343.8C104.977 344.147 105.41 344.427 105.85 344.64C106.303 344.853 106.823 344.96 107.41 344.96C108.05 344.96 108.53 344.813 108.85 344.52C109.17 344.227 109.33 343.867 109.33 343.44C109.33 343.187 109.263 342.967 109.13 342.78C108.997 342.593 108.823 342.433 108.61 342.3C108.41 342.153 108.177 342.027 107.91 341.92C107.643 341.813 107.377 341.707 107.11 341.6C106.763 341.48 106.417 341.347 106.07 341.2C105.723 341.04 105.41 340.853 105.13 340.64C104.863 340.413 104.643 340.153 104.47 339.86C104.297 339.567 104.21 339.213 104.21 338.8C104.21 338.413 104.283 338.053 104.43 337.72C104.59 337.373 104.81 337.08 105.09 336.84C105.383 336.587 105.737 336.393 106.15 336.26C106.563 336.113 107.03 336.04 107.55 336.04C108.163 336.04 108.723 336.147 109.23 336.36C109.75 336.573 110.197 336.833 110.57 337.14L109.79 338.18C109.457 337.927 109.11 337.72 108.75 337.56C108.39 337.4 107.997 337.32 107.57 337.32C106.957 337.32 106.503 337.46 106.21 337.74C105.93 338.02 105.79 338.347 105.79 338.72C105.79 338.947 105.85 339.147 105.97 339.32C106.09 339.48 106.25 339.627 106.45 339.76C106.65 339.88 106.877 339.993 107.13 340.1C107.397 340.193 107.67 340.293 107.95 340.4C108.297 340.533 108.643 340.673 108.99 340.82C109.35 340.967 109.67 341.153 109.95 341.38C110.23 341.593 110.457 341.86 110.63 342.18C110.817 342.5 110.91 342.887 110.91 343.34C110.91 343.74 110.83 344.113 110.67 344.46C110.523 344.807 110.297 345.113 109.99 345.38C109.697 345.647 109.323 345.853 108.87 346C108.43 346.16 107.923 346.24 107.35 346.24ZM115.858 346.24C115.338 346.24 114.898 346.16 114.538 346C114.192 345.84 113.905 345.62 113.678 345.34C113.465 345.06 113.312 344.72 113.218 344.32C113.125 343.92 113.078 343.48 113.078 343V337.62H111.638V336.38L113.158 336.28L113.358 333.56H114.738V336.28H117.358V337.62H114.738V343.02C114.738 343.62 114.845 344.087 115.058 344.42C115.285 344.74 115.678 344.9 116.238 344.9C116.412 344.9 116.598 344.873 116.798 344.82C116.998 344.767 117.178 344.707 117.338 344.64L117.658 345.88C117.392 345.973 117.098 346.053 116.778 346.12C116.472 346.2 116.165 346.24 115.858 346.24ZM123.223 346.24C122.569 346.24 121.956 346.127 121.383 345.9C120.823 345.66 120.329 345.327 119.903 344.9C119.489 344.46 119.163 343.927 118.923 343.3C118.683 342.673 118.563 341.96 118.563 341.16C118.563 340.36 118.683 339.647 118.923 339.02C119.176 338.38 119.503 337.84 119.903 337.4C120.316 336.96 120.783 336.627 121.303 336.4C121.823 336.16 122.363 336.04 122.923 336.04C123.536 336.04 124.083 336.147 124.563 336.36C125.056 336.573 125.463 336.88 125.783 337.28C126.116 337.68 126.369 338.16 126.543 338.72C126.716 339.28 126.803 339.907 126.803 340.6C126.803 340.773 126.796 340.947 126.783 341.12C126.783 341.28 126.769 341.42 126.743 341.54H120.183C120.249 342.58 120.569 343.407 121.143 344.02C121.729 344.62 122.489 344.92 123.423 344.92C123.889 344.92 124.316 344.853 124.703 344.72C125.103 344.573 125.483 344.387 125.843 344.16L126.423 345.24C125.996 345.507 125.523 345.74 125.003 345.94C124.483 346.14 123.889 346.24 123.223 346.24ZM120.163 340.36H125.363C125.363 339.373 125.149 338.627 124.723 338.12C124.309 337.6 123.723 337.34 122.963 337.34C122.616 337.34 122.283 337.407 121.963 337.54C121.656 337.673 121.376 337.873 121.123 338.14C120.869 338.393 120.656 338.707 120.483 339.08C120.323 339.453 120.216 339.88 120.163 340.36ZM129.204 346V336.28H130.564L130.704 338.04H130.764C131.098 337.427 131.498 336.94 131.964 336.58C132.444 336.22 132.964 336.04 133.524 336.04C133.911 336.04 134.258 336.107 134.564 336.24L134.244 337.68C134.084 337.627 133.938 337.587 133.804 337.56C133.671 337.533 133.504 337.52 133.304 337.52C132.891 337.52 132.458 337.687 132.004 338.02C131.564 338.353 131.178 338.933 130.844 339.76V346H129.204ZM139.883 346.24C139.229 346.24 138.616 346.127 138.043 345.9C137.483 345.66 136.989 345.327 136.563 344.9C136.149 344.46 135.823 343.927 135.583 343.3C135.343 342.673 135.223 341.96 135.223 341.16C135.223 340.36 135.343 339.647 135.583 339.02C135.836 338.38 136.163 337.84 136.563 337.4C136.976 336.96 137.443 336.627 137.963 336.4C138.483 336.16 139.023 336.04 139.583 336.04C140.196 336.04 140.743 336.147 141.223 336.36C141.716 336.573 142.123 336.88 142.443 337.28C142.776 337.68 143.029 338.16 143.203 338.72C143.376 339.28 143.463 339.907 143.463 340.6C143.463 340.773 143.456 340.947 143.443 341.12C143.443 341.28 143.429 341.42 143.403 341.54H136.843C136.909 342.58 137.229 343.407 137.803 344.02C138.389 344.62 139.149 344.92 140.083 344.92C140.549 344.92 140.976 344.853 141.363 344.72C141.763 344.573 142.143 344.387 142.503 344.16L143.083 345.24C142.656 345.507 142.183 345.74 141.663 345.94C141.143 346.14 140.549 346.24 139.883 346.24ZM136.823 340.36H142.023C142.023 339.373 141.809 338.627 141.383 338.12C140.969 337.6 140.383 337.34 139.623 337.34C139.276 337.34 138.943 337.407 138.623 337.54C138.316 337.673 138.036 337.873 137.783 338.14C137.529 338.393 137.316 338.707 137.143 339.08C136.983 339.453 136.876 339.88 136.823 340.36ZM149.185 346.24C147.958 346.24 146.978 345.8 146.245 344.92C145.525 344.04 145.165 342.787 145.165 341.16C145.165 340.373 145.278 339.667 145.505 339.04C145.745 338.4 146.058 337.86 146.445 337.42C146.831 336.98 147.278 336.64 147.785 336.4C148.291 336.16 148.825 336.04 149.385 336.04C149.945 336.04 150.431 336.14 150.845 336.34C151.258 336.54 151.678 336.813 152.105 337.16L152.025 335.5V331.76H153.685V346H152.325L152.185 344.86H152.125C151.738 345.233 151.291 345.56 150.785 345.84C150.291 346.107 149.758 346.24 149.185 346.24ZM149.545 344.86C149.998 344.86 150.425 344.753 150.825 344.54C151.225 344.313 151.625 343.973 152.025 343.52V338.44C151.611 338.067 151.211 337.807 150.825 337.66C150.451 337.5 150.065 337.42 149.665 337.42C149.278 337.42 148.911 337.513 148.565 337.7C148.231 337.873 147.938 338.127 147.685 338.46C147.431 338.78 147.231 339.167 147.085 339.62C146.938 340.073 146.865 340.58 146.865 341.14C146.865 342.313 147.098 343.227 147.565 343.88C148.031 344.533 148.691 344.86 149.545 344.86ZM163.502 346.24C162.809 346.24 162.149 346.113 161.522 345.86C160.896 345.607 160.349 345.287 159.882 344.9L160.702 343.8C161.129 344.147 161.562 344.427 162.002 344.64C162.456 344.853 162.976 344.96 163.562 344.96C164.202 344.96 164.682 344.813 165.002 344.52C165.322 344.227 165.482 343.867 165.482 343.44C165.482 343.187 165.416 342.967 165.282 342.78C165.149 342.593 164.976 342.433 164.762 342.3C164.562 342.153 164.329 342.027 164.062 341.92C163.796 341.813 163.529 341.707 163.262 341.6C162.916 341.48 162.569 341.347 162.222 341.2C161.876 341.04 161.562 340.853 161.282 340.64C161.016 340.413 160.796 340.153 160.622 339.86C160.449 339.567 160.362 339.213 160.362 338.8C160.362 338.413 160.436 338.053 160.582 337.72C160.742 337.373 160.962 337.08 161.242 336.84C161.536 336.587 161.889 336.393 162.302 336.26C162.716 336.113 163.182 336.04 163.702 336.04C164.316 336.04 164.876 336.147 165.382 336.36C165.902 336.573 166.349 336.833 166.722 337.14L165.942 338.18C165.609 337.927 165.262 337.72 164.902 337.56C164.542 337.4 164.149 337.32 163.722 337.32C163.109 337.32 162.656 337.46 162.362 337.74C162.082 338.02 161.942 338.347 161.942 338.72C161.942 338.947 162.002 339.147 162.122 339.32C162.242 339.48 162.402 339.627 162.602 339.76C162.802 339.88 163.029 339.993 163.282 340.1C163.549 340.193 163.822 340.293 164.102 340.4C164.449 340.533 164.796 340.673 165.142 340.82C165.502 340.967 165.822 341.153 166.102 341.38C166.382 341.593 166.609 341.86 166.782 342.18C166.969 342.5 167.062 342.887 167.062 343.34C167.062 343.74 166.982 344.113 166.822 344.46C166.676 344.807 166.449 345.113 166.142 345.38C165.849 345.647 165.476 345.853 165.022 346C164.582 346.16 164.076 346.24 163.502 346.24ZM172.181 346.24C171.141 346.24 170.381 345.92 169.901 345.28C169.435 344.64 169.201 343.693 169.201 342.44V336.28H170.861V342.22C170.861 343.14 171.001 343.807 171.281 344.22C171.575 344.62 172.041 344.82 172.681 344.82C173.188 344.82 173.635 344.693 174.021 344.44C174.408 344.173 174.835 343.753 175.301 343.18V336.28H176.941V346H175.581L175.441 344.48H175.381C174.928 345.013 174.448 345.44 173.941 345.76C173.448 346.08 172.861 346.24 172.181 346.24ZM184.06 346.24C183.42 346.24 182.82 346.127 182.26 345.9C181.7 345.673 181.213 345.347 180.8 344.92C180.4 344.48 180.08 343.947 179.84 343.32C179.613 342.68 179.5 341.96 179.5 341.16C179.5 340.347 179.627 339.627 179.88 339C180.133 338.36 180.473 337.82 180.9 337.38C181.327 336.94 181.82 336.607 182.38 336.38C182.953 336.153 183.553 336.04 184.18 336.04C184.82 336.04 185.367 336.153 185.82 336.38C186.273 336.607 186.673 336.873 187.02 337.18L186.18 338.26C185.9 338.007 185.6 337.8 185.28 337.64C184.973 337.48 184.627 337.4 184.24 337.4C183.8 337.4 183.393 337.493 183.02 337.68C182.647 337.853 182.327 338.107 182.06 338.44C181.793 338.773 181.58 339.173 181.42 339.64C181.273 340.093 181.2 340.6 181.2 341.16C181.2 341.72 181.273 342.227 181.42 342.68C181.567 343.133 181.767 343.527 182.02 343.86C182.287 344.18 182.607 344.433 182.98 344.62C183.353 344.793 183.76 344.88 184.2 344.88C184.653 344.88 185.067 344.787 185.44 344.6C185.827 344.4 186.173 344.167 186.48 343.9L187.2 345C186.76 345.387 186.273 345.693 185.74 345.92C185.207 346.133 184.647 346.24 184.06 346.24ZM192.751 346.24C192.111 346.24 191.511 346.127 190.951 345.9C190.391 345.673 189.905 345.347 189.491 344.92C189.091 344.48 188.771 343.947 188.531 343.32C188.305 342.68 188.191 341.96 188.191 341.16C188.191 340.347 188.318 339.627 188.571 339C188.825 338.36 189.165 337.82 189.591 337.38C190.018 336.94 190.511 336.607 191.071 336.38C191.645 336.153 192.245 336.04 192.871 336.04C193.511 336.04 194.058 336.153 194.511 336.38C194.965 336.607 195.365 336.873 195.711 337.18L194.871 338.26C194.591 338.007 194.291 337.8 193.971 337.64C193.665 337.48 193.318 337.4 192.931 337.4C192.491 337.4 192.085 337.493 191.711 337.68C191.338 337.853 191.018 338.107 190.751 338.44C190.485 338.773 190.271 339.173 190.111 339.64C189.965 340.093 189.891 340.6 189.891 341.16C189.891 341.72 189.965 342.227 190.111 342.68C190.258 343.133 190.458 343.527 190.711 343.86C190.978 344.18 191.298 344.433 191.671 344.62C192.045 344.793 192.451 344.88 192.891 344.88C193.345 344.88 193.758 344.787 194.131 344.6C194.518 344.4 194.865 344.167 195.171 343.9L195.891 345C195.451 345.387 194.965 345.693 194.431 345.92C193.898 346.133 193.338 346.24 192.751 346.24ZM201.543 346.24C200.89 346.24 200.276 346.127 199.703 345.9C199.143 345.66 198.65 345.327 198.223 344.9C197.81 344.46 197.483 343.927 197.243 343.3C197.003 342.673 196.883 341.96 196.883 341.16C196.883 340.36 197.003 339.647 197.243 339.02C197.496 338.38 197.823 337.84 198.223 337.4C198.636 336.96 199.103 336.627 199.623 336.4C200.143 336.16 200.683 336.04 201.243 336.04C201.856 336.04 202.403 336.147 202.883 336.36C203.376 336.573 203.783 336.88 204.103 337.28C204.436 337.68 204.69 338.16 204.863 338.72C205.036 339.28 205.123 339.907 205.123 340.6C205.123 340.773 205.116 340.947 205.103 341.12C205.103 341.28 205.09 341.42 205.063 341.54H198.503C198.57 342.58 198.89 343.407 199.463 344.02C200.05 344.62 200.81 344.92 201.743 344.92C202.21 344.92 202.636 344.853 203.023 344.72C203.423 344.573 203.803 344.387 204.163 344.16L204.743 345.24C204.316 345.507 203.843 345.74 203.323 345.94C202.803 346.14 202.21 346.24 201.543 346.24ZM198.483 340.36H203.683C203.683 339.373 203.47 338.627 203.043 338.12C202.63 337.6 202.043 337.34 201.283 337.34C200.936 337.34 200.603 337.407 200.283 337.54C199.976 337.673 199.696 337.873 199.443 338.14C199.19 338.393 198.976 338.707 198.803 339.08C198.643 339.453 198.536 339.88 198.483 340.36ZM210.065 346.24C209.371 346.24 208.711 346.113 208.085 345.86C207.458 345.607 206.911 345.287 206.445 344.9L207.265 343.8C207.691 344.147 208.125 344.427 208.565 344.64C209.018 344.853 209.538 344.96 210.125 344.96C210.765 344.96 211.245 344.813 211.565 344.52C211.885 344.227 212.045 343.867 212.045 343.44C212.045 343.187 211.978 342.967 211.845 342.78C211.711 342.593 211.538 342.433 211.325 342.3C211.125 342.153 210.891 342.027 210.625 341.92C210.358 341.813 210.091 341.707 209.825 341.6C209.478 341.48 209.131 341.347 208.785 341.2C208.438 341.04 208.125 340.853 207.845 340.64C207.578 340.413 207.358 340.153 207.185 339.86C207.011 339.567 206.925 339.213 206.925 338.8C206.925 338.413 206.998 338.053 207.145 337.72C207.305 337.373 207.525 337.08 207.805 336.84C208.098 336.587 208.451 336.393 208.865 336.26C209.278 336.113 209.745 336.04 210.265 336.04C210.878 336.04 211.438 336.147 211.945 336.36C212.465 336.573 212.911 336.833 213.285 337.14L212.505 338.18C212.171 337.927 211.825 337.72 211.465 337.56C211.105 337.4 210.711 337.32 210.285 337.32C209.671 337.32 209.218 337.46 208.925 337.74C208.645 338.02 208.505 338.347 208.505 338.72C208.505 338.947 208.565 339.147 208.685 339.32C208.805 339.48 208.965 339.627 209.165 339.76C209.365 339.88 209.591 339.993 209.845 340.1C210.111 340.193 210.385 340.293 210.665 340.4C211.011 340.533 211.358 340.673 211.705 340.82C212.065 340.967 212.385 341.153 212.665 341.38C212.945 341.593 213.171 341.86 213.345 342.18C213.531 342.5 213.625 342.887 213.625 343.34C213.625 343.74 213.545 344.113 213.385 344.46C213.238 344.807 213.011 345.113 212.705 345.38C212.411 345.647 212.038 345.853 211.585 346C211.145 346.16 210.638 346.24 210.065 346.24ZM216.184 346V337.62H214.864V336.38L216.184 336.28V334.74C216.184 333.74 216.41 332.953 216.864 332.38C217.33 331.807 218.05 331.52 219.024 331.52C219.33 331.52 219.617 331.553 219.884 331.62C220.164 331.673 220.417 331.747 220.644 331.84L220.284 333.1C219.924 332.94 219.557 332.86 219.184 332.86C218.277 332.86 217.824 333.487 217.824 334.74V336.28H219.884V337.62H217.824V346H216.184ZM224.584 346.24C223.544 346.24 222.784 345.92 222.304 345.28C221.837 344.64 221.604 343.693 221.604 342.44V336.28H223.264V342.22C223.264 343.14 223.404 343.807 223.684 344.22C223.977 344.62 224.444 344.82 225.084 344.82C225.59 344.82 226.037 344.693 226.424 344.44C226.81 344.173 227.237 343.753 227.704 343.18V336.28H229.344V346H227.984L227.844 344.48H227.784C227.33 345.013 226.85 345.44 226.344 345.76C225.85 346.08 225.264 346.24 224.584 346.24ZM234.362 346.24C233.736 346.24 233.289 346.053 233.022 345.68C232.756 345.307 232.622 344.76 232.622 344.04V331.76H234.262V344.16C234.262 344.427 234.309 344.613 234.402 344.72C234.496 344.827 234.602 344.88 234.722 344.88C234.776 344.88 234.822 344.88 234.862 344.88C234.916 344.88 234.989 344.867 235.082 344.84L235.302 346.08C235.196 346.133 235.069 346.173 234.922 346.2C234.776 346.227 234.589 346.24 234.362 346.24ZM239.46 346.24C238.833 346.24 238.387 346.053 238.12 345.68C237.853 345.307 237.72 344.76 237.72 344.04V331.76H239.36V344.16C239.36 344.427 239.407 344.613 239.5 344.72C239.593 344.827 239.7 344.88 239.82 344.88C239.873 344.88 239.92 344.88 239.96 344.88C240.013 344.88 240.087 344.867 240.18 344.84L240.4 346.08C240.293 346.133 240.167 346.173 240.02 346.2C239.873 346.227 239.687 346.24 239.46 346.24ZM242.978 350.18C242.751 350.18 242.544 350.16 242.358 350.12C242.171 350.093 241.998 350.047 241.838 349.98L242.158 348.68C242.264 348.707 242.384 348.733 242.518 348.76C242.651 348.8 242.778 348.82 242.898 348.82C243.458 348.82 243.911 348.62 244.258 348.22C244.618 347.833 244.898 347.34 245.098 346.74L245.318 346.02L241.418 336.28H243.118L245.098 341.66C245.244 342.087 245.398 342.54 245.558 343.02C245.731 343.487 245.891 343.947 246.038 344.4H246.118C246.264 343.96 246.404 343.5 246.538 343.02C246.671 342.54 246.804 342.087 246.938 341.66L248.678 336.28H250.278L246.618 346.8C246.444 347.28 246.251 347.727 246.038 348.14C245.824 348.553 245.571 348.907 245.278 349.2C244.984 349.507 244.651 349.747 244.278 349.92C243.904 350.093 243.471 350.18 242.978 350.18ZM252.834 342.04L252.614 334.48L252.574 332.6H254.234L254.194 334.48L253.974 342.04H252.834ZM253.414 346.24C253.08 346.24 252.794 346.127 252.554 345.9C252.327 345.66 252.214 345.36 252.214 345C252.214 344.613 252.327 344.307 252.554 344.08C252.794 343.84 253.08 343.72 253.414 343.72C253.734 343.72 254.007 343.84 254.234 344.08C254.474 344.307 254.594 344.613 254.594 345C254.594 345.36 254.474 345.66 254.234 345.9C254.007 346.127 253.734 346.24 253.414 346.24ZM66.1995 396.24C65.3728 396.24 64.6128 396.087 63.9195 395.78C63.2261 395.473 62.6195 395.033 62.0995 394.46C61.5928 393.873 61.1928 393.16 60.8995 392.32C60.6195 391.467 60.4795 390.507 60.4795 389.44C60.4795 388.387 60.6261 387.44 60.9195 386.6C61.2128 385.76 61.6195 385.047 62.1395 384.46C62.6595 383.873 63.2728 383.427 63.9795 383.12C64.6861 382.8 65.4595 382.64 66.2995 382.64C67.0995 382.64 67.7995 382.807 68.3995 383.14C69.0128 383.46 69.5128 383.833 69.8995 384.26L68.9995 385.34C68.6528 384.967 68.2595 384.667 67.8195 384.44C67.3795 384.213 66.8795 384.1 66.3195 384.1C65.6928 384.1 65.1261 384.227 64.6195 384.48C64.1128 384.72 63.6795 385.073 63.3195 385.54C62.9595 385.993 62.6795 386.547 62.4795 387.2C62.2928 387.853 62.1995 388.587 62.1995 389.4C62.1995 390.227 62.2928 390.973 62.4795 391.64C62.6795 392.293 62.9528 392.853 63.2995 393.32C63.6461 393.787 64.0661 394.147 64.5595 394.4C65.0661 394.653 65.6328 394.78 66.2595 394.78C66.8995 394.78 67.4595 394.653 67.9395 394.4C68.4195 394.133 68.8728 393.767 69.2995 393.3L70.2195 394.34C69.6995 394.94 69.1128 395.407 68.4595 395.74C67.8061 396.073 67.0528 396.24 66.1995 396.24ZM74.2452 396.24C73.6186 396.24 73.1719 396.053 72.9052 395.68C72.6386 395.307 72.5052 394.76 72.5052 394.04V381.76H74.1452V394.16C74.1452 394.427 74.1919 394.613 74.2852 394.72C74.3786 394.827 74.4852 394.88 74.6052 394.88C74.6586 394.88 74.7052 394.88 74.7452 394.88C74.7986 394.88 74.8719 394.867 74.9652 394.84L75.1852 396.08C75.0786 396.133 74.9519 396.173 74.8052 396.2C74.6586 396.227 74.4719 396.24 74.2452 396.24ZM77.6029 396V386.28H79.2429V396H77.6029ZM78.4429 384.28C78.1229 384.28 77.8496 384.18 77.6229 383.98C77.4096 383.78 77.3029 383.527 77.3029 383.22C77.3029 382.9 77.4096 382.647 77.6229 382.46C77.8496 382.26 78.1229 382.16 78.4429 382.16C78.7629 382.16 79.0296 382.26 79.2429 382.46C79.4696 382.647 79.5829 382.9 79.5829 383.22C79.5829 383.527 79.4696 383.78 79.2429 383.98C79.0296 384.18 78.7629 384.28 78.4429 384.28ZM86.3648 396.24C85.7248 396.24 85.1248 396.127 84.5648 395.9C84.0048 395.673 83.5181 395.347 83.1048 394.92C82.7048 394.48 82.3848 393.947 82.1448 393.32C81.9181 392.68 81.8048 391.96 81.8048 391.16C81.8048 390.347 81.9314 389.627 82.1848 389C82.4381 388.36 82.7781 387.82 83.2048 387.38C83.6314 386.94 84.1248 386.607 84.6848 386.38C85.2581 386.153 85.8581 386.04 86.4848 386.04C87.1248 386.04 87.6714 386.153 88.1248 386.38C88.5781 386.607 88.9781 386.873 89.3248 387.18L88.4848 388.26C88.2048 388.007 87.9048 387.8 87.5848 387.64C87.2781 387.48 86.9314 387.4 86.5448 387.4C86.1048 387.4 85.6981 387.493 85.3248 387.68C84.9514 387.853 84.6314 388.107 84.3648 388.44C84.0981 388.773 83.8848 389.173 83.7248 389.64C83.5781 390.093 83.5048 390.6 83.5048 391.16C83.5048 391.72 83.5781 392.227 83.7248 392.68C83.8714 393.133 84.0714 393.527 84.3248 393.86C84.5914 394.18 84.9114 394.433 85.2848 394.62C85.6581 394.793 86.0648 394.88 86.5048 394.88C86.9581 394.88 87.3714 394.787 87.7448 394.6C88.1314 394.4 88.4781 394.167 88.7848 393.9L89.5048 395C89.0648 395.387 88.5781 395.693 88.0448 395.92C87.5114 396.133 86.9514 396.24 86.3648 396.24ZM91.6459 396V381.76H93.2659V391.4H93.3259L97.4659 386.28H99.2859L96.0259 390.18L99.7259 396H97.9259L95.0859 391.32L93.2659 393.44V396H91.6459ZM108.612 396.24C108.092 396.24 107.652 396.16 107.292 396C106.945 395.84 106.659 395.62 106.432 395.34C106.219 395.06 106.065 394.72 105.972 394.32C105.879 393.92 105.832 393.48 105.832 393V387.62H104.392V386.38L105.912 386.28L106.112 383.56H107.492V386.28H110.112V387.62H107.492V393.02C107.492 393.62 107.599 394.087 107.812 394.42C108.039 394.74 108.432 394.9 108.992 394.9C109.165 394.9 109.352 394.873 109.552 394.82C109.752 394.767 109.932 394.707 110.092 394.64L110.412 395.88C110.145 395.973 109.852 396.053 109.532 396.12C109.225 396.2 108.919 396.24 108.612 396.24ZM112.31 396V381.76H113.95V385.64L113.89 387.64C114.357 387.2 114.843 386.827 115.35 386.52C115.857 386.2 116.45 386.04 117.13 386.04C118.157 386.04 118.903 386.36 119.37 387C119.85 387.64 120.09 388.587 120.09 389.84V396H118.45V390.06C118.45 389.14 118.303 388.48 118.01 388.08C117.717 387.667 117.25 387.46 116.61 387.46C116.103 387.46 115.657 387.587 115.27 387.84C114.883 388.093 114.443 388.467 113.95 388.96V396H112.31ZM127.129 396.24C126.475 396.24 125.862 396.127 125.289 395.9C124.729 395.66 124.235 395.327 123.809 394.9C123.395 394.46 123.069 393.927 122.829 393.3C122.589 392.673 122.469 391.96 122.469 391.16C122.469 390.36 122.589 389.647 122.829 389.02C123.082 388.38 123.409 387.84 123.809 387.4C124.222 386.96 124.689 386.627 125.209 386.4C125.729 386.16 126.269 386.04 126.829 386.04C127.442 386.04 127.989 386.147 128.469 386.36C128.962 386.573 129.369 386.88 129.689 387.28C130.022 387.68 130.275 388.16 130.449 388.72C130.622 389.28 130.709 389.907 130.709 390.6C130.709 390.773 130.702 390.947 130.689 391.12C130.689 391.28 130.675 391.42 130.649 391.54H124.089C124.155 392.58 124.475 393.407 125.049 394.02C125.635 394.62 126.395 394.92 127.329 394.92C127.795 394.92 128.222 394.853 128.609 394.72C129.009 394.573 129.389 394.387 129.749 394.16L130.329 395.24C129.902 395.507 129.429 395.74 128.909 395.94C128.389 396.14 127.795 396.24 127.129 396.24ZM124.069 390.36H129.269C129.269 389.373 129.055 388.627 128.629 388.12C128.215 387.6 127.629 387.34 126.869 387.34C126.522 387.34 126.189 387.407 125.869 387.54C125.562 387.673 125.282 387.873 125.029 388.14C124.775 388.393 124.562 388.707 124.389 389.08C124.229 389.453 124.122 389.88 124.069 390.36ZM141.415 396.24C140.961 396.24 140.488 396.133 139.995 395.92C139.515 395.693 139.061 395.387 138.635 395H138.575L138.435 396H137.115V381.76H138.755V385.64L138.715 387.4C139.155 387.013 139.635 386.693 140.155 386.44C140.675 386.173 141.208 386.04 141.755 386.04C142.381 386.04 142.935 386.16 143.415 386.4C143.895 386.627 144.295 386.96 144.615 387.4C144.948 387.827 145.195 388.347 145.355 388.96C145.528 389.56 145.615 390.233 145.615 390.98C145.615 391.807 145.501 392.547 145.275 393.2C145.048 393.853 144.741 394.407 144.355 394.86C143.968 395.313 143.521 395.66 143.015 395.9C142.508 396.127 141.975 396.24 141.415 396.24ZM141.135 394.86C141.535 394.86 141.901 394.773 142.235 394.6C142.581 394.413 142.875 394.16 143.115 393.84C143.368 393.507 143.561 393.1 143.695 392.62C143.841 392.14 143.915 391.6 143.915 391C143.915 390.467 143.868 389.98 143.775 389.54C143.681 389.1 143.528 388.727 143.315 388.42C143.115 388.1 142.848 387.853 142.515 387.68C142.195 387.507 141.808 387.42 141.355 387.42C140.568 387.42 139.701 387.86 138.755 388.74V393.84C139.181 394.213 139.601 394.48 140.015 394.64C140.441 394.787 140.815 394.86 141.135 394.86ZM151.009 396.24C149.969 396.24 149.209 395.92 148.729 395.28C148.263 394.64 148.029 393.693 148.029 392.44V386.28H149.689V392.22C149.689 393.14 149.829 393.807 150.109 394.22C150.403 394.62 150.869 394.82 151.509 394.82C152.016 394.82 152.463 394.693 152.849 394.44C153.236 394.173 153.663 393.753 154.129 393.18V386.28H155.769V396H154.409L154.269 394.48H154.209C153.756 395.013 153.276 395.44 152.769 395.76C152.276 396.08 151.689 396.24 151.009 396.24ZM162.108 396.24C161.588 396.24 161.148 396.16 160.788 396C160.442 395.84 160.155 395.62 159.928 395.34C159.715 395.06 159.562 394.72 159.468 394.32C159.375 393.92 159.328 393.48 159.328 393V387.62H157.888V386.38L159.408 386.28L159.608 383.56H160.988V386.28H163.608V387.62H160.988V393.02C160.988 393.62 161.095 394.087 161.308 394.42C161.535 394.74 161.928 394.9 162.488 394.9C162.662 394.9 162.848 394.873 163.048 394.82C163.248 394.767 163.428 394.707 163.588 394.64L163.908 395.88C163.642 395.973 163.348 396.053 163.028 396.12C162.722 396.2 162.415 396.24 162.108 396.24ZM168.475 396.24C167.955 396.24 167.515 396.16 167.155 396C166.809 395.84 166.522 395.62 166.295 395.34C166.082 395.06 165.929 394.72 165.835 394.32C165.742 393.92 165.695 393.48 165.695 393V387.62H164.255V386.38L165.775 386.28L165.975 383.56H167.355V386.28H169.975V387.62H167.355V393.02C167.355 393.62 167.462 394.087 167.675 394.42C167.902 394.74 168.295 394.9 168.855 394.9C169.029 394.9 169.215 394.873 169.415 394.82C169.615 394.767 169.795 394.707 169.955 394.64L170.275 395.88C170.009 395.973 169.715 396.053 169.395 396.12C169.089 396.2 168.782 396.24 168.475 396.24ZM175.68 396.24C175.08 396.24 174.506 396.127 173.96 395.9C173.426 395.673 172.953 395.347 172.54 394.92C172.126 394.48 171.793 393.947 171.54 393.32C171.3 392.68 171.18 391.96 171.18 391.16C171.18 390.347 171.3 389.627 171.54 389C171.793 388.36 172.126 387.82 172.54 387.38C172.953 386.94 173.426 386.607 173.96 386.38C174.506 386.153 175.08 386.04 175.68 386.04C176.28 386.04 176.846 386.153 177.38 386.38C177.926 386.607 178.406 386.94 178.82 387.38C179.233 387.82 179.56 388.36 179.8 389C180.053 389.627 180.18 390.347 180.18 391.16C180.18 391.96 180.053 392.68 179.8 393.32C179.56 393.947 179.233 394.48 178.82 394.92C178.406 395.347 177.926 395.673 177.38 395.9C176.846 396.127 176.28 396.24 175.68 396.24ZM175.68 394.88C176.093 394.88 176.473 394.793 176.82 394.62C177.166 394.433 177.46 394.18 177.7 393.86C177.953 393.527 178.146 393.133 178.28 392.68C178.413 392.227 178.48 391.72 178.48 391.16C178.48 390.6 178.413 390.093 178.28 389.64C178.146 389.173 177.953 388.773 177.7 388.44C177.46 388.107 177.166 387.853 176.82 387.68C176.473 387.493 176.093 387.4 175.68 387.4C175.266 387.4 174.886 387.493 174.54 387.68C174.193 387.853 173.893 388.107 173.64 388.44C173.4 388.773 173.213 389.173 173.08 389.64C172.946 390.093 172.88 390.6 172.88 391.16C172.88 391.72 172.946 392.227 173.08 392.68C173.213 393.133 173.4 393.527 173.64 393.86C173.893 394.18 174.193 394.433 174.54 394.62C174.886 394.793 175.266 394.88 175.68 394.88ZM182.74 396V386.28H184.1L184.24 387.68H184.3C184.766 387.213 185.253 386.827 185.76 386.52C186.28 386.2 186.88 386.04 187.56 386.04C188.586 386.04 189.333 386.36 189.8 387C190.28 387.64 190.52 388.587 190.52 389.84V396H188.88V390.06C188.88 389.14 188.733 388.48 188.44 388.08C188.146 387.667 187.68 387.46 187.04 387.46C186.533 387.46 186.086 387.587 185.7 387.84C185.313 388.093 184.873 388.467 184.38 388.96V396H182.74ZM201.981 396.24C201.528 396.24 201.054 396.133 200.561 395.92C200.081 395.693 199.628 395.387 199.201 395H199.141L199.001 396H197.681V381.76H199.321V385.64L199.281 387.4C199.721 387.013 200.201 386.693 200.721 386.44C201.241 386.173 201.774 386.04 202.321 386.04C202.948 386.04 203.501 386.16 203.981 386.4C204.461 386.627 204.861 386.96 205.181 387.4C205.514 387.827 205.761 388.347 205.921 388.96C206.094 389.56 206.181 390.233 206.181 390.98C206.181 391.807 206.068 392.547 205.841 393.2C205.614 393.853 205.308 394.407 204.921 394.86C204.534 395.313 204.088 395.66 203.581 395.9C203.074 396.127 202.541 396.24 201.981 396.24ZM201.701 394.86C202.101 394.86 202.468 394.773 202.801 394.6C203.148 394.413 203.441 394.16 203.681 393.84C203.934 393.507 204.128 393.1 204.261 392.62C204.408 392.14 204.481 391.6 204.481 391C204.481 390.467 204.434 389.98 204.341 389.54C204.248 389.1 204.094 388.727 203.881 388.42C203.681 388.1 203.414 387.853 203.081 387.68C202.761 387.507 202.374 387.42 201.921 387.42C201.134 387.42 200.268 387.86 199.321 388.74V393.84C199.748 394.213 200.168 394.48 200.581 394.64C201.008 394.787 201.381 394.86 201.701 394.86ZM212.676 396.24C212.022 396.24 211.409 396.127 210.836 395.9C210.276 395.66 209.782 395.327 209.356 394.9C208.942 394.46 208.616 393.927 208.376 393.3C208.136 392.673 208.016 391.96 208.016 391.16C208.016 390.36 208.136 389.647 208.376 389.02C208.629 388.38 208.956 387.84 209.356 387.4C209.769 386.96 210.236 386.627 210.756 386.4C211.276 386.16 211.816 386.04 212.376 386.04C212.989 386.04 213.536 386.147 214.016 386.36C214.509 386.573 214.916 386.88 215.236 387.28C215.569 387.68 215.822 388.16 215.996 388.72C216.169 389.28 216.256 389.907 216.256 390.6C216.256 390.773 216.249 390.947 216.236 391.12C216.236 391.28 216.222 391.42 216.196 391.54H209.636C209.702 392.58 210.022 393.407 210.596 394.02C211.182 394.62 211.942 394.92 212.876 394.92C213.342 394.92 213.769 394.853 214.156 394.72C214.556 394.573 214.936 394.387 215.296 394.16L215.876 395.24C215.449 395.507 214.976 395.74 214.456 395.94C213.936 396.14 213.342 396.24 212.676 396.24ZM209.616 390.36H214.816C214.816 389.373 214.602 388.627 214.176 388.12C213.762 387.6 213.176 387.34 212.416 387.34C212.069 387.34 211.736 387.407 211.416 387.54C211.109 387.673 210.829 387.873 210.576 388.14C210.322 388.393 210.109 388.707 209.936 389.08C209.776 389.453 209.669 389.88 209.616 390.36ZM220.398 396.24C219.771 396.24 219.324 396.053 219.058 395.68C218.791 395.307 218.658 394.76 218.658 394.04V381.76H220.298V394.16C220.298 394.427 220.344 394.613 220.438 394.72C220.531 394.827 220.638 394.88 220.758 394.88C220.811 394.88 220.858 394.88 220.898 394.88C220.951 394.88 221.024 394.867 221.118 394.84L221.338 396.08C221.231 396.133 221.104 396.173 220.958 396.2C220.811 396.227 220.624 396.24 220.398 396.24ZM227.535 396.24C226.935 396.24 226.362 396.127 225.815 395.9C225.282 395.673 224.809 395.347 224.395 394.92C223.982 394.48 223.649 393.947 223.395 393.32C223.155 392.68 223.035 391.96 223.035 391.16C223.035 390.347 223.155 389.627 223.395 389C223.649 388.36 223.982 387.82 224.395 387.38C224.809 386.94 225.282 386.607 225.815 386.38C226.362 386.153 226.935 386.04 227.535 386.04C228.135 386.04 228.702 386.153 229.235 386.38C229.782 386.607 230.262 386.94 230.675 387.38C231.089 387.82 231.415 388.36 231.655 389C231.909 389.627 232.035 390.347 232.035 391.16C232.035 391.96 231.909 392.68 231.655 393.32C231.415 393.947 231.089 394.48 230.675 394.92C230.262 395.347 229.782 395.673 229.235 395.9C228.702 396.127 228.135 396.24 227.535 396.24ZM227.535 394.88C227.949 394.88 228.329 394.793 228.675 394.62C229.022 394.433 229.315 394.18 229.555 393.86C229.809 393.527 230.002 393.133 230.135 392.68C230.269 392.227 230.335 391.72 230.335 391.16C230.335 390.6 230.269 390.093 230.135 389.64C230.002 389.173 229.809 388.773 229.555 388.44C229.315 388.107 229.022 387.853 228.675 387.68C228.329 387.493 227.949 387.4 227.535 387.4C227.122 387.4 226.742 387.493 226.395 387.68C226.049 387.853 225.749 388.107 225.495 388.44C225.255 388.773 225.069 389.173 224.935 389.64C224.802 390.093 224.735 390.6 224.735 391.16C224.735 391.72 224.802 392.227 224.935 392.68C225.069 393.133 225.255 393.527 225.495 393.86C225.749 394.18 226.049 394.433 226.395 394.62C226.742 394.793 227.122 394.88 227.535 394.88ZM236.057 396L233.357 386.28H235.037L236.477 391.9C236.584 392.367 236.684 392.82 236.777 393.26C236.87 393.7 236.964 394.147 237.057 394.6H237.137C237.244 394.147 237.35 393.7 237.457 393.26C237.564 392.807 237.677 392.353 237.797 391.9L239.297 386.28H240.897L242.417 391.9C242.537 392.367 242.65 392.82 242.757 393.26C242.877 393.7 242.99 394.147 243.097 394.6H243.177C243.284 394.147 243.384 393.7 243.477 393.26C243.57 392.82 243.67 392.367 243.777 391.9L245.197 386.28H246.757L244.157 396H242.157L240.757 390.78C240.637 390.313 240.524 389.853 240.417 389.4C240.324 388.947 240.217 388.473 240.097 387.98H240.017C239.91 388.473 239.804 388.953 239.697 389.42C239.59 389.873 239.47 390.333 239.337 390.8L237.977 396H236.057ZM255.936 396.24C255.416 396.24 254.976 396.16 254.616 396C254.27 395.84 253.983 395.62 253.756 395.34C253.543 395.06 253.39 394.72 253.296 394.32C253.203 393.92 253.156 393.48 253.156 393V387.62H251.716V386.38L253.236 386.28L253.436 383.56H254.816V386.28H257.436V387.62H254.816V393.02C254.816 393.62 254.923 394.087 255.136 394.42C255.363 394.74 255.756 394.9 256.316 394.9C256.49 394.9 256.676 394.873 256.876 394.82C257.076 394.767 257.256 394.707 257.416 394.64L257.736 395.88C257.47 395.973 257.176 396.053 256.856 396.12C256.55 396.2 256.243 396.24 255.936 396.24ZM263.141 396.24C262.541 396.24 261.967 396.127 261.421 395.9C260.887 395.673 260.414 395.347 260.001 394.92C259.587 394.48 259.254 393.947 259.001 393.32C258.761 392.68 258.641 391.96 258.641 391.16C258.641 390.347 258.761 389.627 259.001 389C259.254 388.36 259.587 387.82 260.001 387.38C260.414 386.94 260.887 386.607 261.421 386.38C261.967 386.153 262.541 386.04 263.141 386.04C263.741 386.04 264.307 386.153 264.841 386.38C265.387 386.607 265.867 386.94 266.281 387.38C266.694 387.82 267.021 388.36 267.261 389C267.514 389.627 267.641 390.347 267.641 391.16C267.641 391.96 267.514 392.68 267.261 393.32C267.021 393.947 266.694 394.48 266.281 394.92C265.867 395.347 265.387 395.673 264.841 395.9C264.307 396.127 263.741 396.24 263.141 396.24ZM263.141 394.88C263.554 394.88 263.934 394.793 264.281 394.62C264.627 394.433 264.921 394.18 265.161 393.86C265.414 393.527 265.607 393.133 265.741 392.68C265.874 392.227 265.941 391.72 265.941 391.16C265.941 390.6 265.874 390.093 265.741 389.64C265.607 389.173 265.414 388.773 265.161 388.44C264.921 388.107 264.627 387.853 264.281 387.68C263.934 387.493 263.554 387.4 263.141 387.4C262.727 387.4 262.347 387.493 262.001 387.68C261.654 387.853 261.354 388.107 261.101 388.44C260.861 388.773 260.674 389.173 260.541 389.64C260.407 390.093 260.341 390.6 260.341 391.16C260.341 391.72 260.407 392.227 260.541 392.68C260.674 393.133 260.861 393.527 261.101 393.86C261.354 394.18 261.654 394.433 262.001 394.62C262.347 394.793 262.727 394.88 263.141 394.88ZM65.7576 421L62.2576 411.28H63.9576L65.7976 416.8C65.9442 417.28 66.0909 417.76 66.2376 418.24C66.3976 418.72 66.5509 419.193 66.6976 419.66H66.7776C66.9242 419.193 67.0709 418.72 67.2176 418.24C67.3642 417.76 67.5109 417.28 67.6576 416.8L69.4976 411.28H71.1176L67.6776 421H65.7576ZM72.9935 421V411.28H74.6335V421H72.9935ZM73.8335 409.28C73.5135 409.28 73.2402 409.18 73.0135 408.98C72.8002 408.78 72.6935 408.527 72.6935 408.22C72.6935 407.9 72.8002 407.647 73.0135 407.46C73.2402 407.26 73.5135 407.16 73.8335 407.16C74.1535 407.16 74.4202 407.26 74.6335 407.46C74.8602 407.647 74.9735 407.9 74.9735 408.22C74.9735 408.527 74.8602 408.78 74.6335 408.98C74.4202 409.18 74.1535 409.28 73.8335 409.28ZM81.8554 421.24C81.2021 421.24 80.5887 421.127 80.0154 420.9C79.4554 420.66 78.9621 420.327 78.5354 419.9C78.1221 419.46 77.7954 418.927 77.5554 418.3C77.3154 417.673 77.1954 416.96 77.1954 416.16C77.1954 415.36 77.3154 414.647 77.5554 414.02C77.8087 413.38 78.1354 412.84 78.5354 412.4C78.9487 411.96 79.4154 411.627 79.9354 411.4C80.4554 411.16 80.9954 411.04 81.5554 411.04C82.1687 411.04 82.7154 411.147 83.1954 411.36C83.6887 411.573 84.0954 411.88 84.4154 412.28C84.7487 412.68 85.0021 413.16 85.1754 413.72C85.3487 414.28 85.4354 414.907 85.4354 415.6C85.4354 415.773 85.4287 415.947 85.4154 416.12C85.4154 416.28 85.4021 416.42 85.3754 416.54H78.8154C78.8821 417.58 79.2021 418.407 79.7754 419.02C80.3621 419.62 81.1221 419.92 82.0554 419.92C82.5221 419.92 82.9487 419.853 83.3354 419.72C83.7354 419.573 84.1154 419.387 84.4754 419.16L85.0554 420.24C84.6287 420.507 84.1554 420.74 83.6354 420.94C83.1154 421.14 82.5221 421.24 81.8554 421.24ZM78.7954 415.36H83.9954C83.9954 414.373 83.7821 413.627 83.3554 413.12C82.9421 412.6 82.3554 412.34 81.5954 412.34C81.2487 412.34 80.9154 412.407 80.5954 412.54C80.2887 412.673 80.0087 412.873 79.7554 413.14C79.5021 413.393 79.2887 413.707 79.1154 414.08C78.9554 414.453 78.8487 414.88 78.7954 415.36ZM89.4749 421L86.7749 411.28H88.4549L89.8949 416.9C90.0016 417.367 90.1016 417.82 90.1949 418.26C90.2883 418.7 90.3816 419.147 90.4749 419.6H90.5549C90.6616 419.147 90.7683 418.7 90.8749 418.26C90.9816 417.807 91.0949 417.353 91.2149 416.9L92.7149 411.28H94.3149L95.8349 416.9C95.9549 417.367 96.0683 417.82 96.1749 418.26C96.2949 418.7 96.4083 419.147 96.5149 419.6H96.5949C96.7016 419.147 96.8016 418.7 96.8949 418.26C96.9883 417.82 97.0883 417.367 97.1949 416.9L98.6149 411.28H100.175L97.5749 421H95.5749L94.1749 415.78C94.0549 415.313 93.9416 414.853 93.8349 414.4C93.7416 413.947 93.6349 413.473 93.5149 412.98H93.4349C93.3283 413.473 93.2216 413.953 93.1149 414.42C93.0083 414.873 92.8883 415.333 92.7549 415.8L91.3949 421H89.4749ZM110.074 421.24C109.474 421.24 108.901 421.127 108.354 420.9C107.821 420.673 107.348 420.347 106.934 419.92C106.521 419.48 106.188 418.947 105.934 418.32C105.694 417.68 105.574 416.96 105.574 416.16C105.574 415.347 105.694 414.627 105.934 414C106.188 413.36 106.521 412.82 106.934 412.38C107.348 411.94 107.821 411.607 108.354 411.38C108.901 411.153 109.474 411.04 110.074 411.04C110.674 411.04 111.241 411.153 111.774 411.38C112.321 411.607 112.801 411.94 113.214 412.38C113.628 412.82 113.954 413.36 114.194 414C114.448 414.627 114.574 415.347 114.574 416.16C114.574 416.96 114.448 417.68 114.194 418.32C113.954 418.947 113.628 419.48 113.214 419.92C112.801 420.347 112.321 420.673 111.774 420.9C111.241 421.127 110.674 421.24 110.074 421.24ZM110.074 419.88C110.488 419.88 110.868 419.793 111.214 419.62C111.561 419.433 111.854 419.18 112.094 418.86C112.348 418.527 112.541 418.133 112.674 417.68C112.808 417.227 112.874 416.72 112.874 416.16C112.874 415.6 112.808 415.093 112.674 414.64C112.541 414.173 112.348 413.773 112.094 413.44C111.854 413.107 111.561 412.853 111.214 412.68C110.868 412.493 110.488 412.4 110.074 412.4C109.661 412.4 109.281 412.493 108.934 412.68C108.588 412.853 108.288 413.107 108.034 413.44C107.794 413.773 107.608 414.173 107.474 414.64C107.341 415.093 107.274 415.6 107.274 416.16C107.274 416.72 107.341 417.227 107.474 417.68C107.608 418.133 107.794 418.527 108.034 418.86C108.288 419.18 108.588 419.433 108.934 419.62C109.281 419.793 109.661 419.88 110.074 419.88ZM117.134 421V411.28H118.494L118.634 413.04H118.694C119.027 412.427 119.427 411.94 119.894 411.58C120.374 411.22 120.894 411.04 121.454 411.04C121.841 411.04 122.187 411.107 122.494 411.24L122.174 412.68C122.014 412.627 121.867 412.587 121.734 412.56C121.601 412.533 121.434 412.52 121.234 412.52C120.821 412.52 120.387 412.687 119.934 413.02C119.494 413.353 119.107 413.933 118.774 414.76V421H117.134ZM132.012 421.24C131.358 421.24 130.745 421.127 130.172 420.9C129.612 420.66 129.118 420.327 128.692 419.9C128.278 419.46 127.952 418.927 127.712 418.3C127.472 417.673 127.352 416.96 127.352 416.16C127.352 415.36 127.472 414.647 127.712 414.02C127.965 413.38 128.292 412.84 128.692 412.4C129.105 411.96 129.572 411.627 130.092 411.4C130.612 411.16 131.152 411.04 131.712 411.04C132.325 411.04 132.872 411.147 133.352 411.36C133.845 411.573 134.252 411.88 134.572 412.28C134.905 412.68 135.158 413.16 135.332 413.72C135.505 414.28 135.592 414.907 135.592 415.6C135.592 415.773 135.585 415.947 135.572 416.12C135.572 416.28 135.558 416.42 135.532 416.54H128.972C129.038 417.58 129.358 418.407 129.932 419.02C130.518 419.62 131.278 419.92 132.212 419.92C132.678 419.92 133.105 419.853 133.492 419.72C133.892 419.573 134.272 419.387 134.632 419.16L135.212 420.24C134.785 420.507 134.312 420.74 133.792 420.94C133.272 421.14 132.678 421.24 132.012 421.24ZM128.952 415.36H134.152C134.152 414.373 133.938 413.627 133.512 413.12C133.098 412.6 132.512 412.34 131.752 412.34C131.405 412.34 131.072 412.407 130.752 412.54C130.445 412.673 130.165 412.873 129.912 413.14C129.658 413.393 129.445 413.707 129.272 414.08C129.112 414.453 129.005 414.88 128.952 415.36ZM141.314 421.24C140.087 421.24 139.107 420.8 138.374 419.92C137.654 419.04 137.294 417.787 137.294 416.16C137.294 415.373 137.407 414.667 137.634 414.04C137.874 413.4 138.187 412.86 138.574 412.42C138.96 411.98 139.407 411.64 139.914 411.4C140.42 411.16 140.954 411.04 141.514 411.04C142.074 411.04 142.56 411.14 142.974 411.34C143.387 411.54 143.807 411.813 144.234 412.16L144.154 410.5V406.76H145.814V421H144.454L144.314 419.86H144.254C143.867 420.233 143.42 420.56 142.914 420.84C142.42 421.107 141.887 421.24 141.314 421.24ZM141.674 419.86C142.127 419.86 142.554 419.753 142.954 419.54C143.354 419.313 143.754 418.973 144.154 418.52V413.44C143.74 413.067 143.34 412.807 142.954 412.66C142.58 412.5 142.194 412.42 141.794 412.42C141.407 412.42 141.04 412.513 140.694 412.7C140.36 412.873 140.067 413.127 139.814 413.46C139.56 413.78 139.36 414.167 139.214 414.62C139.067 415.073 138.994 415.58 138.994 416.14C138.994 417.313 139.227 418.227 139.694 418.88C140.16 419.533 140.82 419.86 141.674 419.86ZM149.087 421V411.28H150.727V421H149.087ZM149.927 409.28C149.607 409.28 149.334 409.18 149.107 408.98C148.894 408.78 148.787 408.527 148.787 408.22C148.787 407.9 148.894 407.647 149.107 407.46C149.334 407.26 149.607 407.16 149.927 407.16C150.247 407.16 150.514 407.26 150.727 407.46C150.954 407.647 151.067 407.9 151.067 408.22C151.067 408.527 150.954 408.78 150.727 408.98C150.514 409.18 150.247 409.28 149.927 409.28ZM157.069 421.24C156.549 421.24 156.109 421.16 155.749 421C155.402 420.84 155.116 420.62 154.889 420.34C154.676 420.06 154.522 419.72 154.429 419.32C154.336 418.92 154.289 418.48 154.289 418V412.62H152.849V411.38L154.369 411.28L154.569 408.56H155.949V411.28H158.569V412.62H155.949V418.02C155.949 418.62 156.056 419.087 156.269 419.42C156.496 419.74 156.889 419.9 157.449 419.9C157.622 419.9 157.809 419.873 158.009 419.82C158.209 419.767 158.389 419.707 158.549 419.64L158.869 420.88C158.602 420.973 158.309 421.053 157.989 421.12C157.682 421.2 157.376 421.24 157.069 421.24ZM167.831 421.24C167.311 421.24 166.871 421.16 166.511 421C166.164 420.84 165.878 420.62 165.651 420.34C165.438 420.06 165.284 419.72 165.191 419.32C165.098 418.92 165.051 418.48 165.051 418V412.62H163.611V411.38L165.131 411.28L165.331 408.56H166.711V411.28H169.331V412.62H166.711V418.02C166.711 418.62 166.818 419.087 167.031 419.42C167.258 419.74 167.651 419.9 168.211 419.9C168.384 419.9 168.571 419.873 168.771 419.82C168.971 419.767 169.151 419.707 169.311 419.64L169.631 420.88C169.364 420.973 169.071 421.053 168.751 421.12C168.444 421.2 168.138 421.24 167.831 421.24ZM171.529 421V406.76H173.169V410.64L173.109 412.64C173.575 412.2 174.062 411.827 174.569 411.52C175.075 411.2 175.669 411.04 176.349 411.04C177.375 411.04 178.122 411.36 178.589 412C179.069 412.64 179.309 413.587 179.309 414.84V421H177.669V415.06C177.669 414.14 177.522 413.48 177.229 413.08C176.935 412.667 176.469 412.46 175.829 412.46C175.322 412.46 174.875 412.587 174.489 412.84C174.102 413.093 173.662 413.467 173.169 413.96V421H171.529ZM186.348 421.24C185.694 421.24 185.081 421.127 184.508 420.9C183.948 420.66 183.454 420.327 183.028 419.9C182.614 419.46 182.288 418.927 182.048 418.3C181.808 417.673 181.688 416.96 181.688 416.16C181.688 415.36 181.808 414.647 182.048 414.02C182.301 413.38 182.628 412.84 183.028 412.4C183.441 411.96 183.908 411.627 184.428 411.4C184.948 411.16 185.488 411.04 186.048 411.04C186.661 411.04 187.208 411.147 187.688 411.36C188.181 411.573 188.588 411.88 188.908 412.28C189.241 412.68 189.494 413.16 189.668 413.72C189.841 414.28 189.928 414.907 189.928 415.6C189.928 415.773 189.921 415.947 189.908 416.12C189.908 416.28 189.894 416.42 189.868 416.54H183.308C183.374 417.58 183.694 418.407 184.268 419.02C184.854 419.62 185.614 419.92 186.548 419.92C187.014 419.92 187.441 419.853 187.828 419.72C188.228 419.573 188.608 419.387 188.968 419.16L189.548 420.24C189.121 420.507 188.648 420.74 188.128 420.94C187.608 421.14 187.014 421.24 186.348 421.24ZM183.288 415.36H188.488C188.488 414.373 188.274 413.627 187.848 413.12C187.434 412.6 186.848 412.34 186.088 412.34C185.741 412.34 185.408 412.407 185.088 412.54C184.781 412.673 184.501 412.873 184.248 413.14C183.994 413.393 183.781 413.707 183.608 414.08C183.448 414.453 183.341 414.88 183.288 415.36ZM192.329 421V411.28H193.969V421H192.329ZM193.169 409.28C192.849 409.28 192.576 409.18 192.349 408.98C192.136 408.78 192.029 408.527 192.029 408.22C192.029 407.9 192.136 407.647 192.349 407.46C192.576 407.26 192.849 407.16 193.169 407.16C193.489 407.16 193.756 407.26 193.969 407.46C194.196 407.647 194.309 407.9 194.309 408.22C194.309 408.527 194.196 408.78 193.969 408.98C193.756 409.18 193.489 409.28 193.169 409.28ZM197.251 421V411.28H198.611L198.751 413.04H198.811C199.145 412.427 199.545 411.94 200.011 411.58C200.491 411.22 201.011 411.04 201.571 411.04C201.958 411.04 202.305 411.107 202.611 411.24L202.291 412.68C202.131 412.627 201.985 412.587 201.851 412.56C201.718 412.533 201.551 412.52 201.351 412.52C200.938 412.52 200.505 412.687 200.051 413.02C199.611 413.353 199.225 413.933 198.891 414.76V421H197.251ZM208.189 425.1V411.28H209.549L209.689 412.4H209.749C210.189 412.027 210.669 411.707 211.189 411.44C211.722 411.173 212.275 411.04 212.849 411.04C213.475 411.04 214.029 411.16 214.509 411.4C214.989 411.627 215.389 411.96 215.709 412.4C216.029 412.827 216.269 413.347 216.429 413.96C216.602 414.56 216.689 415.24 216.689 416C216.689 416.827 216.575 417.567 216.349 418.22C216.122 418.86 215.815 419.407 215.429 419.86C215.042 420.313 214.595 420.66 214.089 420.9C213.582 421.127 213.049 421.24 212.489 421.24C212.035 421.24 211.582 421.14 211.129 420.94C210.689 420.74 210.242 420.467 209.789 420.12L209.829 421.82V425.1H208.189ZM212.209 419.86C212.609 419.86 212.975 419.773 213.309 419.6C213.655 419.413 213.949 419.16 214.189 418.84C214.442 418.507 214.635 418.1 214.769 417.62C214.915 417.14 214.989 416.6 214.989 416C214.989 415.467 214.942 414.98 214.849 414.54C214.755 414.1 214.602 413.727 214.389 413.42C214.189 413.1 213.922 412.853 213.589 412.68C213.269 412.507 212.882 412.42 212.429 412.42C212.015 412.42 211.595 412.533 211.169 412.76C210.755 412.987 210.309 413.313 209.829 413.74V418.84C210.269 419.213 210.695 419.48 211.109 419.64C211.522 419.787 211.889 419.86 212.209 419.86ZM219.283 421V411.28H220.643L220.783 413.04H220.843C221.176 412.427 221.576 411.94 222.043 411.58C222.523 411.22 223.043 411.04 223.603 411.04C223.989 411.04 224.336 411.107 224.643 411.24L224.323 412.68C224.163 412.627 224.016 412.587 223.883 412.56C223.749 412.533 223.583 412.52 223.383 412.52C222.969 412.52 222.536 412.687 222.083 413.02C221.643 413.353 221.256 413.933 220.923 414.76V421H219.283ZM229.801 421.24C229.201 421.24 228.628 421.127 228.081 420.9C227.548 420.673 227.074 420.347 226.661 419.92C226.248 419.48 225.914 418.947 225.661 418.32C225.421 417.68 225.301 416.96 225.301 416.16C225.301 415.347 225.421 414.627 225.661 414C225.914 413.36 226.248 412.82 226.661 412.38C227.074 411.94 227.548 411.607 228.081 411.38C228.628 411.153 229.201 411.04 229.801 411.04C230.401 411.04 230.968 411.153 231.501 411.38C232.048 411.607 232.528 411.94 232.941 412.38C233.354 412.82 233.681 413.36 233.921 414C234.174 414.627 234.301 415.347 234.301 416.16C234.301 416.96 234.174 417.68 233.921 418.32C233.681 418.947 233.354 419.48 232.941 419.92C232.528 420.347 232.048 420.673 231.501 420.9C230.968 421.127 230.401 421.24 229.801 421.24ZM229.801 419.88C230.214 419.88 230.594 419.793 230.941 419.62C231.288 419.433 231.581 419.18 231.821 418.86C232.074 418.527 232.268 418.133 232.401 417.68C232.534 417.227 232.601 416.72 232.601 416.16C232.601 415.6 232.534 415.093 232.401 414.64C232.268 414.173 232.074 413.773 231.821 413.44C231.581 413.107 231.288 412.853 230.941 412.68C230.594 412.493 230.214 412.4 229.801 412.4C229.388 412.4 229.008 412.493 228.661 412.68C228.314 412.853 228.014 413.107 227.761 413.44C227.521 413.773 227.334 414.173 227.201 414.64C227.068 415.093 227.001 415.6 227.001 416.16C227.001 416.72 227.068 417.227 227.201 417.68C227.334 418.133 227.521 418.527 227.761 418.86C228.014 419.18 228.314 419.433 228.661 419.62C229.008 419.793 229.388 419.88 229.801 419.88ZM237.141 421V412.62H235.821V411.38L237.141 411.28V409.74C237.141 408.74 237.367 407.953 237.821 407.38C238.287 406.807 239.007 406.52 239.981 406.52C240.287 406.52 240.574 406.553 240.841 406.62C241.121 406.673 241.374 406.747 241.601 406.84L241.241 408.1C240.881 407.94 240.514 407.86 240.141 407.86C239.234 407.86 238.781 408.487 238.781 409.74V411.28H240.841V412.62H238.781V421H237.141ZM242.701 421V411.28H244.341V421H242.701ZM243.541 409.28C243.221 409.28 242.947 409.18 242.721 408.98C242.507 408.78 242.401 408.527 242.401 408.22C242.401 407.9 242.507 407.647 242.721 407.46C242.947 407.26 243.221 407.16 243.541 407.16C243.861 407.16 244.127 407.26 244.341 407.46C244.567 407.647 244.681 407.9 244.681 408.22C244.681 408.527 244.567 408.78 244.341 408.98C244.127 409.18 243.861 409.28 243.541 409.28ZM249.362 421.24C248.736 421.24 248.289 421.053 248.022 420.68C247.756 420.307 247.622 419.76 247.622 419.04V406.76H249.262V419.16C249.262 419.427 249.309 419.613 249.402 419.72C249.496 419.827 249.602 419.88 249.722 419.88C249.776 419.88 249.822 419.88 249.862 419.88C249.916 419.88 249.989 419.867 250.082 419.84L250.302 421.08C250.196 421.133 250.069 421.173 249.922 421.2C249.776 421.227 249.589 421.24 249.362 421.24ZM256.66 421.24C256.007 421.24 255.393 421.127 254.82 420.9C254.26 420.66 253.767 420.327 253.34 419.9C252.927 419.46 252.6 418.927 252.36 418.3C252.12 417.673 252 416.96 252 416.16C252 415.36 252.12 414.647 252.36 414.02C252.613 413.38 252.94 412.84 253.34 412.4C253.753 411.96 254.22 411.627 254.74 411.4C255.26 411.16 255.8 411.04 256.36 411.04C256.973 411.04 257.52 411.147 258 411.36C258.493 411.573 258.9 411.88 259.22 412.28C259.553 412.68 259.807 413.16 259.98 413.72C260.153 414.28 260.24 414.907 260.24 415.6C260.24 415.773 260.233 415.947 260.22 416.12C260.22 416.28 260.207 416.42 260.18 416.54H253.62C253.687 417.58 254.007 418.407 254.58 419.02C255.167 419.62 255.927 419.92 256.86 419.92C257.327 419.92 257.753 419.853 258.14 419.72C258.54 419.573 258.92 419.387 259.28 419.16L259.86 420.24C259.433 420.507 258.96 420.74 258.44 420.94C257.92 421.14 257.327 421.24 256.66 421.24ZM253.6 415.36H258.8C258.8 414.373 258.587 413.627 258.16 413.12C257.747 412.6 257.16 412.34 256.4 412.34C256.053 412.34 255.72 412.407 255.4 412.54C255.093 412.673 254.813 412.873 254.56 413.14C254.307 413.393 254.093 413.707 253.92 414.08C253.76 414.453 253.653 414.88 253.6 415.36ZM263.502 421.24C263.169 421.24 262.882 421.127 262.642 420.9C262.415 420.66 262.302 420.36 262.302 420C262.302 419.613 262.415 419.307 262.642 419.08C262.882 418.84 263.169 418.72 263.502 418.72C263.822 418.72 264.095 418.84 264.322 419.08C264.562 419.307 264.682 419.613 264.682 420C264.682 420.36 264.562 420.66 264.322 420.9C264.095 421.127 263.822 421.24 263.502 421.24Z" fill="black"/>
<path d="M104.936 55.432C103.4 55.432 101.864 55.156 100.328 54.604C98.816 54.028 97.46 53.176 96.26 52.048L99.284 48.412C100.124 49.132 101.048 49.72 102.056 50.176C103.088 50.632 104.096 50.86 105.08 50.86C106.184 50.86 107 50.656 107.528 50.248C108.08 49.84 108.356 49.288 108.356 48.592C108.356 48.232 108.272 47.92 108.104 47.656C107.96 47.392 107.732 47.164 107.42 46.972C107.132 46.756 106.772 46.564 106.34 46.396C105.932 46.204 105.476 46 104.972 45.784L101.912 44.488C101.312 44.248 100.724 43.936 100.148 43.552C99.596 43.168 99.092 42.724 98.636 42.22C98.204 41.692 97.856 41.092 97.592 40.42C97.328 39.724 97.196 38.944 97.196 38.08C97.196 37.12 97.4 36.22 97.808 35.38C98.216 34.516 98.792 33.772 99.536 33.148C100.28 32.5 101.156 31.996 102.164 31.636C103.196 31.276 104.324 31.096 105.548 31.096C106.916 31.096 108.26 31.36 109.58 31.888C110.924 32.416 112.1 33.184 113.108 34.192L110.408 37.54C109.64 36.94 108.872 36.484 108.104 36.172C107.336 35.836 106.484 35.668 105.548 35.668C104.636 35.668 103.904 35.86 103.352 36.244C102.824 36.604 102.56 37.12 102.56 37.792C102.56 38.152 102.644 38.464 102.812 38.728C103.004 38.968 103.256 39.196 103.568 39.412C103.904 39.604 104.288 39.796 104.72 39.988C105.152 40.156 105.62 40.348 106.124 40.564L109.148 41.788C110.588 42.364 111.716 43.156 112.532 44.164C113.372 45.172 113.792 46.504 113.792 48.16C113.792 49.144 113.588 50.08 113.18 50.968C112.796 51.832 112.22 52.6 111.452 53.272C110.708 53.92 109.784 54.448 108.68 54.856C107.576 55.24 106.328 55.432 104.936 55.432ZM122.708 55.432C120.764 55.432 119.348 54.796 118.46 53.524C117.596 52.252 117.164 50.488 117.164 48.232V37.144H122.456V47.548C122.456 48.844 122.636 49.732 122.996 50.212C123.356 50.692 123.92 50.932 124.688 50.932C125.36 50.932 125.924 50.776 126.38 50.464C126.836 50.152 127.328 49.648 127.856 48.952V37.144H133.148V55H128.828L128.432 52.516H128.324C127.556 53.428 126.728 54.148 125.84 54.676C124.976 55.18 123.932 55.432 122.708 55.432ZM145.581 55.432C144.333 55.432 143.169 55.228 142.089 54.82C141.033 54.388 140.109 53.776 139.317 52.984C138.525 52.192 137.901 51.22 137.445 50.068C136.989 48.892 136.761 47.56 136.761 46.072C136.761 44.584 137.013 43.264 137.517 42.112C138.021 40.936 138.693 39.952 139.533 39.16C140.397 38.368 141.393 37.768 142.521 37.36C143.649 36.928 144.825 36.712 146.049 36.712C147.153 36.712 148.125 36.892 148.965 37.252C149.829 37.612 150.597 38.068 151.269 38.62L148.785 42.04C147.945 41.344 147.141 40.996 146.373 40.996C145.077 40.996 144.057 41.452 143.313 42.364C142.569 43.276 142.197 44.512 142.197 46.072C142.197 47.632 142.569 48.868 143.313 49.78C144.081 50.692 145.041 51.148 146.193 51.148C146.769 51.148 147.321 51.028 147.849 50.788C148.401 50.524 148.917 50.212 149.397 49.852L151.485 53.308C150.597 54.076 149.637 54.628 148.605 54.964C147.573 55.276 146.565 55.432 145.581 55.432ZM161.366 55.432C160.118 55.432 158.954 55.228 157.874 54.82C156.818 54.388 155.894 53.776 155.102 52.984C154.31 52.192 153.686 51.22 153.23 50.068C152.774 48.892 152.546 47.56 152.546 46.072C152.546 44.584 152.798 43.264 153.302 42.112C153.806 40.936 154.478 39.952 155.318 39.16C156.182 38.368 157.178 37.768 158.306 37.36C159.434 36.928 160.61 36.712 161.834 36.712C162.938 36.712 163.91 36.892 164.75 37.252C165.614 37.612 166.382 38.068 167.054 38.62L164.57 42.04C163.73 41.344 162.926 40.996 162.158 40.996C160.862 40.996 159.842 41.452 159.098 42.364C158.354 43.276 157.982 44.512 157.982 46.072C157.982 47.632 158.354 48.868 159.098 49.78C159.866 50.692 160.826 51.148 161.978 51.148C162.554 51.148 163.106 51.028 163.634 50.788C164.186 50.524 164.702 50.212 165.182 49.852L167.27 53.308C166.382 54.076 165.422 54.628 164.39 54.964C163.358 55.276 162.35 55.432 161.366 55.432ZM177.367 55.432C176.095 55.432 174.907 55.228 173.803 54.82C172.699 54.388 171.739 53.776 170.923 52.984C170.107 52.168 169.471 51.184 169.015 50.032C168.559 48.88 168.331 47.56 168.331 46.072C168.331 44.632 168.571 43.336 169.051 42.184C169.531 41.008 170.155 40.024 170.923 39.232C171.715 38.416 172.615 37.792 173.623 37.36C174.631 36.928 175.675 36.712 176.755 36.712C178.027 36.712 179.131 36.928 180.067 37.36C181.027 37.792 181.819 38.392 182.443 39.16C183.091 39.928 183.571 40.84 183.883 41.896C184.195 42.928 184.351 44.056 184.351 45.28C184.351 45.76 184.327 46.216 184.279 46.648C184.231 47.08 184.183 47.404 184.135 47.62H173.443C173.683 48.916 174.211 49.876 175.027 50.5C175.867 51.1 176.887 51.4 178.087 51.4C179.359 51.4 180.643 51.004 181.939 50.212L183.703 53.416C182.791 54.04 181.771 54.532 180.643 54.892C179.539 55.252 178.447 55.432 177.367 55.432ZM173.407 44.128H179.851C179.851 43.12 179.623 42.304 179.167 41.68C178.711 41.056 177.943 40.744 176.863 40.744C176.023 40.744 175.279 41.02 174.631 41.572C174.007 42.124 173.599 42.976 173.407 44.128ZM193.264 55.432C192.088 55.432 190.876 55.204 189.628 54.748C188.404 54.292 187.336 53.692 186.424 52.948L188.8 49.636C189.616 50.26 190.396 50.728 191.14 51.04C191.884 51.352 192.64 51.508 193.408 51.508C194.2 51.508 194.776 51.376 195.136 51.112C195.496 50.848 195.676 50.476 195.676 49.996C195.676 49.708 195.568 49.456 195.352 49.24C195.16 49 194.884 48.784 194.524 48.592C194.188 48.4 193.804 48.232 193.372 48.088C192.94 47.92 192.496 47.74 192.04 47.548C191.488 47.332 190.936 47.08 190.384 46.792C189.832 46.504 189.328 46.156 188.872 45.748C188.416 45.316 188.044 44.824 187.756 44.272C187.468 43.696 187.324 43.036 187.324 42.292C187.324 41.476 187.48 40.72 187.792 40.024C188.128 39.328 188.596 38.74 189.196 38.26C189.796 37.78 190.516 37.408 191.356 37.144C192.196 36.856 193.132 36.712 194.164 36.712C195.532 36.712 196.732 36.952 197.764 37.432C198.796 37.888 199.696 38.404 200.464 38.98L198.088 42.148C197.44 41.668 196.804 41.296 196.18 41.032C195.556 40.768 194.932 40.636 194.308 40.636C192.964 40.636 192.292 41.104 192.292 42.04C192.292 42.328 192.388 42.58 192.58 42.796C192.772 42.988 193.024 43.168 193.336 43.336C193.672 43.504 194.044 43.672 194.452 43.84C194.884 43.984 195.328 44.14 195.784 44.308C196.36 44.524 196.924 44.776 197.476 45.064C198.052 45.328 198.568 45.664 199.024 46.072C199.504 46.48 199.888 46.984 200.176 47.584C200.464 48.16 200.608 48.856 200.608 49.672C200.608 50.488 200.452 51.244 200.14 51.94C199.828 52.636 199.36 53.248 198.736 53.776C198.112 54.28 197.344 54.688 196.432 55C195.52 55.288 194.464 55.432 193.264 55.432ZM209.225 55.432C208.049 55.432 206.837 55.204 205.589 54.748C204.365 54.292 203.297 53.692 202.385 52.948L204.761 49.636C205.577 50.26 206.357 50.728 207.101 51.04C207.845 51.352 208.601 51.508 209.369 51.508C210.161 51.508 210.737 51.376 211.097 51.112C211.457 50.848 211.637 50.476 211.637 49.996C211.637 49.708 211.529 49.456 211.313 49.24C211.121 49 210.845 48.784 210.485 48.592C210.149 48.4 209.765 48.232 209.333 48.088C208.901 47.92 208.457 47.74 208.001 47.548C207.449 47.332 206.897 47.08 206.345 46.792C205.793 46.504 205.289 46.156 204.833 45.748C204.377 45.316 204.005 44.824 203.717 44.272C203.429 43.696 203.285 43.036 203.285 42.292C203.285 41.476 203.441 40.72 203.753 40.024C204.089 39.328 204.557 38.74 205.157 38.26C205.757 37.78 206.477 37.408 207.317 37.144C208.157 36.856 209.093 36.712 210.125 36.712C211.493 36.712 212.693 36.952 213.725 37.432C214.757 37.888 215.657 38.404 216.425 38.98L214.049 42.148C213.401 41.668 212.765 41.296 212.141 41.032C211.517 40.768 210.893 40.636 210.269 40.636C208.925 40.636 208.253 41.104 208.253 42.04C208.253 42.328 208.349 42.58 208.541 42.796C208.733 42.988 208.985 43.168 209.297 43.336C209.633 43.504 210.005 43.672 210.413 43.84C210.845 43.984 211.289 44.14 211.745 44.308C212.321 44.524 212.885 44.776 213.437 45.064C214.013 45.328 214.529 45.664 214.985 46.072C215.465 46.48 215.849 46.984 216.137 47.584C216.425 48.16 216.569 48.856 216.569 49.672C216.569 50.488 216.413 51.244 216.101 51.94C215.789 52.636 215.321 53.248 214.697 53.776C214.073 54.28 213.305 54.688 212.393 55C211.481 55.288 210.425 55.432 209.225 55.432ZM221.982 46.684L221.226 35.668L221.046 30.88H226.374L226.194 35.668L225.438 46.684H221.982ZM223.71 55.432C222.798 55.432 222.03 55.12 221.406 54.496C220.806 53.848 220.506 53.056 220.506 52.12C220.506 51.16 220.806 50.368 221.406 49.744C222.03 49.096 222.798 48.772 223.71 48.772C224.622 48.772 225.378 49.096 225.978 49.744C226.602 50.368 226.914 51.16 226.914 52.12C226.914 53.056 226.602 53.848 225.978 54.496C225.378 55.12 224.622 55.432 223.71 55.432Z" fill="#EF1F67"/>
<path d="M212.407 120L144.593 209.062L104.5 169.152L86 187.581L147.657 249L234 138.429L212.407 120Z" fill="#83E039"/>
</svg>
