<svg width="193" height="252" viewBox="0 0 193 252" fill="none" xmlns="http://www.w3.org/2000/svg">
<rect x="0.5" y="59.5" width="192" height="192" rx="96" fill="white" stroke="#EF1F67"/>
<path d="M37.936 35.432C36.4 35.432 34.864 35.156 33.328 34.604C31.816 34.028 30.46 33.176 29.26 32.048L32.284 28.412C33.124 29.132 34.048 29.72 35.056 30.176C36.088 30.632 37.096 30.86 38.08 30.86C39.184 30.86 40 30.656 40.528 30.248C41.08 29.84 41.356 29.288 41.356 28.592C41.356 28.232 41.272 27.92 41.104 27.656C40.96 27.392 40.732 27.164 40.42 26.972C40.132 26.756 39.772 26.564 39.34 26.396C38.932 26.204 38.476 26 37.972 25.784L34.912 24.488C34.312 24.248 33.724 23.936 33.148 23.552C32.596 23.168 32.092 22.724 31.636 22.22C31.204 21.692 30.856 21.092 30.592 20.42C30.328 19.724 30.196 18.944 30.196 18.08C30.196 17.12 30.4 16.22 30.808 15.38C31.216 14.516 31.792 13.772 32.536 13.148C33.28 12.5 34.156 11.996 35.164 11.636C36.196 11.276 37.324 11.096 38.548 11.096C39.916 11.096 41.26 11.36 42.58 11.888C43.924 12.416 45.1 13.184 46.108 14.192L43.408 17.54C42.64 16.94 41.872 16.484 41.104 16.172C40.336 15.836 39.484 15.668 38.548 15.668C37.636 15.668 36.904 15.86 36.352 16.244C35.824 16.604 35.56 17.12 35.56 17.792C35.56 18.152 35.644 18.464 35.812 18.728C36.004 18.968 36.256 19.196 36.568 19.412C36.904 19.604 37.288 19.796 37.72 19.988C38.152 20.156 38.62 20.348 39.124 20.564L42.148 21.788C43.588 22.364 44.716 23.156 45.532 24.164C46.372 25.172 46.792 26.504 46.792 28.16C46.792 29.144 46.588 30.08 46.18 30.968C45.796 31.832 45.22 32.6 44.452 33.272C43.708 33.92 42.784 34.448 41.68 34.856C40.576 35.24 39.328 35.432 37.936 35.432ZM55.7079 35.432C53.7639 35.432 52.3479 34.796 51.4599 33.524C50.5959 32.252 50.1639 30.488 50.1639 28.232V17.144H55.4559V27.548C55.4559 28.844 55.6359 29.732 55.9959 30.212C56.3559 30.692 56.9199 30.932 57.6879 30.932C58.3599 30.932 58.9239 30.776 59.3799 30.464C59.8359 30.152 60.3279 29.648 60.8559 28.952V17.144H66.1479V35H61.8279L61.4319 32.516H61.3239C60.5559 33.428 59.7279 34.148 58.8399 34.676C57.9759 35.18 56.9319 35.432 55.7079 35.432ZM78.5808 35.432C77.3328 35.432 76.1688 35.228 75.0888 34.82C74.0328 34.388 73.1088 33.776 72.3168 32.984C71.5248 32.192 70.9008 31.22 70.4448 30.068C69.9888 28.892 69.7608 27.56 69.7608 26.072C69.7608 24.584 70.0128 23.264 70.5168 22.112C71.0208 20.936 71.6928 19.952 72.5328 19.16C73.3968 18.368 74.3928 17.768 75.5208 17.36C76.6488 16.928 77.8248 16.712 79.0488 16.712C80.1528 16.712 81.1248 16.892 81.9648 17.252C82.8288 17.612 83.5968 18.068 84.2688 18.62L81.7848 22.04C80.9448 21.344 80.1408 20.996 79.3728 20.996C78.0768 20.996 77.0568 21.452 76.3128 22.364C75.5688 23.276 75.1968 24.512 75.1968 26.072C75.1968 27.632 75.5688 28.868 76.3128 29.78C77.0808 30.692 78.0408 31.148 79.1928 31.148C79.7688 31.148 80.3208 31.028 80.8488 30.788C81.4008 30.524 81.9168 30.212 82.3968 29.852L84.4848 33.308C83.5968 34.076 82.6368 34.628 81.6048 34.964C80.5728 35.276 79.5648 35.432 78.5808 35.432ZM94.366 35.432C93.118 35.432 91.954 35.228 90.874 34.82C89.818 34.388 88.894 33.776 88.102 32.984C87.31 32.192 86.686 31.22 86.23 30.068C85.774 28.892 85.546 27.56 85.546 26.072C85.546 24.584 85.798 23.264 86.302 22.112C86.806 20.936 87.478 19.952 88.318 19.16C89.182 18.368 90.178 17.768 91.306 17.36C92.434 16.928 93.61 16.712 94.834 16.712C95.938 16.712 96.91 16.892 97.75 17.252C98.614 17.612 99.382 18.068 100.054 18.62L97.57 22.04C96.73 21.344 95.926 20.996 95.158 20.996C93.862 20.996 92.842 21.452 92.098 22.364C91.354 23.276 90.982 24.512 90.982 26.072C90.982 27.632 91.354 28.868 92.098 29.78C92.866 30.692 93.826 31.148 94.978 31.148C95.554 31.148 96.106 31.028 96.634 30.788C97.186 30.524 97.702 30.212 98.182 29.852L100.27 33.308C99.382 34.076 98.422 34.628 97.39 34.964C96.358 35.276 95.35 35.432 94.366 35.432ZM110.367 35.432C109.095 35.432 107.907 35.228 106.803 34.82C105.699 34.388 104.739 33.776 103.923 32.984C103.107 32.168 102.471 31.184 102.015 30.032C101.559 28.88 101.331 27.56 101.331 26.072C101.331 24.632 101.571 23.336 102.051 22.184C102.531 21.008 103.155 20.024 103.923 19.232C104.715 18.416 105.615 17.792 106.623 17.36C107.631 16.928 108.675 16.712 109.755 16.712C111.027 16.712 112.131 16.928 113.067 17.36C114.027 17.792 114.819 18.392 115.443 19.16C116.091 19.928 116.571 20.84 116.883 21.896C117.195 22.928 117.351 24.056 117.351 25.28C117.351 25.76 117.327 26.216 117.279 26.648C117.231 27.08 117.183 27.404 117.135 27.62H106.443C106.683 28.916 107.211 29.876 108.027 30.5C108.867 31.1 109.887 31.4 111.087 31.4C112.359 31.4 113.643 31.004 114.939 30.212L116.703 33.416C115.791 34.04 114.771 34.532 113.643 34.892C112.539 35.252 111.447 35.432 110.367 35.432ZM106.407 24.128H112.851C112.851 23.12 112.623 22.304 112.167 21.68C111.711 21.056 110.943 20.744 109.863 20.744C109.023 20.744 108.279 21.02 107.631 21.572C107.007 22.124 106.599 22.976 106.407 24.128ZM126.264 35.432C125.088 35.432 123.876 35.204 122.628 34.748C121.404 34.292 120.336 33.692 119.424 32.948L121.8 29.636C122.616 30.26 123.396 30.728 124.14 31.04C124.884 31.352 125.64 31.508 126.408 31.508C127.2 31.508 127.776 31.376 128.136 31.112C128.496 30.848 128.676 30.476 128.676 29.996C128.676 29.708 128.568 29.456 128.352 29.24C128.16 29 127.884 28.784 127.524 28.592C127.188 28.4 126.804 28.232 126.372 28.088C125.94 27.92 125.496 27.74 125.04 27.548C124.488 27.332 123.936 27.08 123.384 26.792C122.832 26.504 122.328 26.156 121.872 25.748C121.416 25.316 121.044 24.824 120.756 24.272C120.468 23.696 120.324 23.036 120.324 22.292C120.324 21.476 120.48 20.72 120.792 20.024C121.128 19.328 121.596 18.74 122.196 18.26C122.796 17.78 123.516 17.408 124.356 17.144C125.196 16.856 126.132 16.712 127.164 16.712C128.532 16.712 129.732 16.952 130.764 17.432C131.796 17.888 132.696 18.404 133.464 18.98L131.088 22.148C130.44 21.668 129.804 21.296 129.18 21.032C128.556 20.768 127.932 20.636 127.308 20.636C125.964 20.636 125.292 21.104 125.292 22.04C125.292 22.328 125.388 22.58 125.58 22.796C125.772 22.988 126.024 23.168 126.336 23.336C126.672 23.504 127.044 23.672 127.452 23.84C127.884 23.984 128.328 24.14 128.784 24.308C129.36 24.524 129.924 24.776 130.476 25.064C131.052 25.328 131.568 25.664 132.024 26.072C132.504 26.48 132.888 26.984 133.176 27.584C133.464 28.16 133.608 28.856 133.608 29.672C133.608 30.488 133.452 31.244 133.14 31.94C132.828 32.636 132.36 33.248 131.736 33.776C131.112 34.28 130.344 34.688 129.432 35C128.52 35.288 127.464 35.432 126.264 35.432ZM142.225 35.432C141.049 35.432 139.837 35.204 138.589 34.748C137.365 34.292 136.297 33.692 135.385 32.948L137.761 29.636C138.577 30.26 139.357 30.728 140.101 31.04C140.845 31.352 141.601 31.508 142.369 31.508C143.161 31.508 143.737 31.376 144.097 31.112C144.457 30.848 144.637 30.476 144.637 29.996C144.637 29.708 144.529 29.456 144.313 29.24C144.121 29 143.845 28.784 143.485 28.592C143.149 28.4 142.765 28.232 142.333 28.088C141.901 27.92 141.457 27.74 141.001 27.548C140.449 27.332 139.897 27.08 139.345 26.792C138.793 26.504 138.289 26.156 137.833 25.748C137.377 25.316 137.005 24.824 136.717 24.272C136.429 23.696 136.285 23.036 136.285 22.292C136.285 21.476 136.441 20.72 136.753 20.024C137.089 19.328 137.557 18.74 138.157 18.26C138.757 17.78 139.477 17.408 140.317 17.144C141.157 16.856 142.093 16.712 143.125 16.712C144.493 16.712 145.693 16.952 146.725 17.432C147.757 17.888 148.657 18.404 149.425 18.98L147.049 22.148C146.401 21.668 145.765 21.296 145.141 21.032C144.517 20.768 143.893 20.636 143.269 20.636C141.925 20.636 141.253 21.104 141.253 22.04C141.253 22.328 141.349 22.58 141.541 22.796C141.733 22.988 141.985 23.168 142.297 23.336C142.633 23.504 143.005 23.672 143.413 23.84C143.845 23.984 144.289 24.14 144.745 24.308C145.321 24.524 145.885 24.776 146.437 25.064C147.013 25.328 147.529 25.664 147.985 26.072C148.465 26.48 148.849 26.984 149.137 27.584C149.425 28.16 149.569 28.856 149.569 29.672C149.569 30.488 149.413 31.244 149.101 31.94C148.789 32.636 148.321 33.248 147.697 33.776C147.073 34.28 146.305 34.688 145.393 35C144.481 35.288 143.425 35.432 142.225 35.432ZM154.982 26.684L154.226 15.668L154.046 10.88H159.374L159.194 15.668L158.438 26.684H154.982ZM156.71 35.432C155.798 35.432 155.03 35.12 154.406 34.496C153.806 33.848 153.506 33.056 153.506 32.12C153.506 31.16 153.806 30.368 154.406 29.744C155.03 29.096 155.798 28.772 156.71 28.772C157.622 28.772 158.378 29.096 158.978 29.744C159.602 30.368 159.914 31.16 159.914 32.12C159.914 33.056 159.602 33.848 158.978 34.496C158.378 35.12 157.622 35.432 156.71 35.432Z" fill="#EF1F67"/>
<path d="M145.407 100L77.593 189.062L37.5 149.152L19 167.581L80.657 229L167 118.429L145.407 100Z" fill="#83E039"/>
</svg>
